<svg xmlns="http://www.w3.org/2000/svg" xmlns:xlink="http://www.w3.org/1999/xlink" width="353" height="281" viewBox="0 0 353 281">
  <defs>
    <rect id="403-a" width="23.336" height="4.652" x="5.834" y="3.489" rx="2.326"/>
    <rect id="403-b" width="7.437" height="84.863" x="7.926" y="11.29"/>
    <rect id="403-c" width="19.212" height="4.936" x="2.265" y="25.968"/>
    <path id="403-d" d="M2.07078102,95.2603285 C4.18951478,92.9722111 7.62970968,91.2199554 12.0780749,91.4766018 C16.5264401,91.7332483 18.9968487,92.6144396 21.345565,94.7172334 C22.9113758,96.1190959 23.7219939,97.9277756 23.7774194,100.143273 L0.00111043383,100.143273 C-0.0315983489,98.4133881 0.658291847,96.7857401 2.07078102,95.2603285 Z"/>
    <rect id="403-e" width="7.437" height="84.863" x="7.926" y="11.29"/>
    <rect id="403-f" width="19.212" height="4.936" x="2.265" y="25.968"/>
    <path id="403-g" d="M2.07078102,95.2603285 C4.18951478,92.9722111 7.62970968,91.2199554 12.0780749,91.4766018 C16.5264401,91.7332483 18.9968487,92.6144396 21.345565,94.7172334 C22.9113758,96.1190959 23.7219939,97.9277756 23.7774194,100.143273 L0.00111043383,100.143273 C-0.0315983489,98.4133881 0.658291847,96.7857401 2.07078102,95.2603285 Z"/>
    <path id="403-h" d="M0.266485492,7.86568151 C24.5769942,22.6101965 52.1940838,30.368397 83.1177541,31.1402831 C114.041424,31.9121692 143.775293,24.2186599 172.31936,8.05975512 L166.871597,0.196947106 C138.947275,15.9008856 110.296608,23.2135244 80.919596,22.1348636 C51.5425844,21.0562028 26.4008033,13.6817666 5.49425266,0.0115549586 L0.266485492,7.86568151 Z"/>
    <path id="403-j" d="M0,9.01001112 L24.001572,9.01001112 L24.001572,19.3674009 C24.001572,25.995252 18.6286371,31.3681869 12.000786,31.3681869 L12.000786,31.3681869 C5.3729349,31.3681869 2.5880345e-15,25.995252 1.77635684e-15,19.3674009 L0,9.01001112 Z"/>
  </defs>
  <g fill="none" fill-rule="evenodd" transform="translate(1 1)">
    <g stroke="#8FA6B7" stroke-width="1.694" transform="translate(65.671)">
      <path fill="#FFF" d="M0,270.967742 L0,95.4032258 C-6.47106906e-15,42.7134791 42.8355176,9.67894945e-15 95.6758065,0 C148.516095,-9.67894945e-15 191.351613,42.7134791 191.351613,95.4032258 L191.351613,270.967742"/>
      <path fill="#EAEAEA" d="M8.16744689,270.967742 L8.16744689,95.9814368 C8.16744689,47.4683163 47.6074662,8.14066177 96.2591955,8.14066177 C144.910925,8.14066177 184.350944,47.4683163 184.350944,95.9814368 L184.350944,270.967742"/>
      <path fill="#F5F5F5" d="M23.3355625,270.967742 L23.3355625,94.8124576 C23.3355625,54.0100318 56.5069695,20.9331303 97.4259736,20.9331303 C138.344978,20.9331303 171.516385,54.0100318 171.516385,94.8124576 L171.516385,270.967742"/>
      <path d="M17.5016719,269.896138 L17.5016719,189.708238 M16.4638986,144.523973 L16.4638986,109.539802 C15.9694912,92.9524461 16.896186,80.4101963 19.243983,71.9130526 C21.59178,63.4159088 25.9956441,54.8233198 32.4555753,46.1352855 M40.8372345,37.8738123 C44.6107766,33.9327357 49.6675896,29.4845013 56.2209565,25.7226647 C66.0239987,20.0954135 75.7939418,16.9167099 87.9497578,15.8715797"/>
    </g>
    <g transform="translate(89.007 97.688)">
      <g transform="translate(4.667 44.192)">
        <ellipse cx="4.667" cy="4.652" fill="#FFF" stroke="#8FA6B7" stroke-width="1.355" rx="4.667" ry="4.652"/>
        <ellipse cx="4.667" cy="5.815" fill="#8FA6B7" rx="1.167" ry="1.163"/>
      </g>
      <g transform="translate(2.334 60.473)">
        <ellipse cx="5.834" cy="5.815" fill="#EAEAEA" stroke="#8FA6B7" stroke-width="1.355" rx="5.834" ry="5.815"/>
        <use fill="#EAEAEA" xlink:href="#403-a"/>
        <rect width="21.981" height="3.297" x="6.511" y="4.166" stroke="#8FA6B7" stroke-width="1.355" rx="1.648"/>
      </g>
      <g transform="translate(0 100.014)">
        <path stroke="#8FA6B7" stroke-width="1.163" d="M.457903192.483412049L147.299648 33.3288459M.453956295 14.3047594L147.332425 47.2179257"/>
        <path fill="#8FA6B7" d="M2.47762555,11.0285876 L5.54391847,11.0285876 C7.26608299,11.0285876 8.12716524,11.7612471 8.12716524,13.2265662 C8.12716524,14.7023519 7.25558198,15.4454781 5.53341747,15.4454781 L3.33870781,15.4454781 L3.33870781,18.5017151 L2.47762555,18.5017151 L2.47762555,11.0285876 Z M3.33870781,11.7717137 L3.33870781,14.7023519 L5.49141345,14.7023519 C6.10047164,14.7023519 6.54151377,14.5767531 6.83554186,14.3360221 C7.11906894,14.0952912 7.26608299,13.7289614 7.26608299,13.2265662 C7.26608299,12.7241711 7.11906894,12.3578413 6.82504085,12.1380435 C6.53101277,11.8868459 6.08997063,11.7717137 5.49141345,11.7717137 L3.33870781,11.7717137 Z M9.21926957,11.0285876 L12.4535785,11.0285876 C13.1991498,11.0285876 13.7872059,11.1960526 14.2177471,11.5414493 C14.6587892,11.8973125 14.8898113,12.4206407 14.8898113,13.111434 C14.8898113,13.5300966 14.7743002,13.8964264 14.5432782,14.2208899 C14.2912541,14.55582 13.955222,14.7651513 13.5246809,14.869817 L13.5246809,14.8907501 C14.2387491,15.0477486 14.6377872,15.4978109 14.7217952,16.2514036 L14.8373063,17.4027257 C14.8793103,17.8632546 15.0158233,18.2295844 15.2363444,18.5017151 L14.3017551,18.5017151 C14.133739,18.2505175 14.028729,17.926054 13.997226,17.5073914 L13.902717,16.5130677 C13.860713,16.073472 13.7031979,15.7490084 13.4301718,15.5606103 C13.1781478,15.3722121 12.8211137,15.2884796 12.3485685,15.2884796 L10.0803518,15.2884796 L10.0803518,18.5017151 L9.21926957,18.5017151 L9.21926957,11.0285876 Z M10.0803518,11.7717137 L10.0803518,14.5453535 L12.3485685,14.5453535 C12.8946207,14.5453535 13.3251618,14.4092881 13.6191899,14.1580905 C13.881715,13.9173595 14.018228,13.5824295 14.018228,13.1428337 C14.018228,12.6823049 13.881715,12.3369082 13.6296909,12.1171103 C13.3566648,11.8868459 12.9261237,11.7717137 12.3485685,11.7717137 L10.0803518,11.7717137 Z M19.5942607,10.8820557 C20.707367,10.8820557 21.5999523,11.2483854 22.2510145,12.0019781 C22.8600727,12.7137046 23.1751028,13.6347623 23.1751028,14.7756179 C23.1751028,15.9060069 22.8600727,16.8165981 22.2510145,17.5283245 C21.5999523,18.2714506 20.707367,18.648247 19.5837597,18.648247 C18.4601523,18.648247 17.5780681,18.2714506 16.9270059,17.5283245 C16.3074467,16.8165981 16.0029176,15.8955404 16.0029176,14.7756179 C16.0029176,13.6452289 16.3074467,12.7241711 16.9270059,12.0124447 C17.5780681,11.258852 18.4601523,10.8820557 19.5942607,10.8820557 Z M19.5942607,11.6461149 C18.7331784,11.6461149 18.0506132,11.9391787 17.5570661,12.5357729 C17.0950219,13.1009675 16.8639999,13.8440936 16.8639999,14.7756179 C16.8639999,15.6966756 17.0950219,16.4398017 17.5570661,17.0049963 C18.0401122,17.5911239 18.7226774,17.8841877 19.5837597,17.8841877 C20.4448419,17.8841877 21.1274071,17.5911239 21.6104533,17.0259294 C22.0724974,16.4607349 22.3140205,15.7176087 22.3140205,14.7756179 C22.3140205,13.8231605 22.0724974,13.0695678 21.6104533,12.5043733 C21.1274071,11.9287122 20.4553429,11.6461149 19.5942607,11.6461149 Z M24.3722171,11.0285876 L24.3722171,18.5017151 L25.2332994,18.5017151 L25.2332994,15.0163489 L29.5702137,15.0163489 L29.5702137,18.5017151 L30.4312959,18.5017151 L30.4312959,11.0285876 L29.5702137,11.0285876 L29.5702137,14.2732228 L25.2332994,14.2732228 L25.2332994,11.0285876 L24.3722171,11.0285876 Z M31.9959454,11.0285876 L31.9959454,18.5017151 L32.8465267,18.5017151 L32.8465267,11.0285876 L31.9959454,11.0285876 Z M34.4216771,11.0285876 L37.7714971,11.0285876 C38.4645633,11.0285876 39.0211165,11.1960526 39.4306556,11.5309827 C39.8296937,11.8659128 40.0292128,12.3264416 40.0292128,12.9125693 C40.0292128,13.3312319 39.9137018,13.6975617 39.6931807,14.0010921 C39.4621586,14.2732228 39.1576295,14.4720875 38.7795934,14.5976863 C39.2731406,14.6814188 39.6511767,14.8907501 39.9242028,15.2047471 C40.1972289,15.518744 40.3442429,15.9164735 40.3442429,16.4188686 C40.3442429,17.1515282 40.0817178,17.6957896 39.5671687,18.0516528 C39.1261265,18.3447166 38.5170684,18.5017151 37.7504951,18.5017151 L34.4216771,18.5017151 L34.4216771,11.0285876 Z M35.2827594,11.7507806 L35.2827594,14.2941559 L37.5614771,14.2941559 C38.0865272,14.2941559 38.4855653,14.1790237 38.7585914,13.9696924 C39.0316175,13.7498945 39.1786316,13.425431 39.1786316,12.9963018 C39.1786316,12.5776392 39.0421185,12.2636423 38.7690924,12.0543109 C38.4960663,11.8449796 38.0970282,11.7507806 37.5719781,11.7507806 L35.2827594,11.7507806 Z M35.2827594,15.0058823 L35.2827594,17.7795221 L37.6769881,17.7795221 C38.2020383,17.7795221 38.6115774,17.6748564 38.9266075,17.4864583 C39.2941426,17.2561938 39.4831606,16.889864 39.4831606,16.408402 C39.4831606,15.9269401 39.3151446,15.5710768 39.0001145,15.3408124 C38.6955854,15.110548 38.2545433,15.0058823 37.6769881,15.0058823 L35.2827594,15.0058823 Z M41.5938623,11.0285876 L41.5938623,18.5017151 L42.4444435,18.5017151 L42.4444435,11.0285876 L41.5938623,11.0285876 Z M43.4420388,11.0285876 L43.4420388,11.7717137 L46.0882916,11.7717137 L46.0882916,18.5017151 L46.9388729,18.5017151 L46.9388729,11.7717137 L49.5851257,11.7717137 L49.5851257,11.0285876 L43.4420388,11.0285876 Z M50.5197149,11.0285876 L50.5197149,18.5017151 L56.0117396,18.5017151 L56.0117396,17.758589 L51.3807972,17.758589 L51.3807972,15.0163489 L55.5811985,15.0163489 L55.5811985,14.2732228 L51.3807972,14.2732228 L51.3807972,11.7717137 L55.8332225,11.7717137 L55.8332225,11.0285876 L50.5197149,11.0285876 Z M57.208854,11.0285876 L59.8971108,11.0285876 C61.0837241,11.0285876 61.9763094,11.3635177 62.5853676,12.0543109 C63.1419207,12.6823049 63.4254478,13.592896 63.4254478,14.7651513 C63.4254478,15.9164735 63.1209187,16.8270647 62.5223615,17.4759917 C61.8923014,18.1563184 60.9892151,18.5017151 59.8131027,18.5017151 L57.208854,18.5017151 L57.208854,11.0285876 Z M58.0699362,11.7717137 L58.0699362,17.758589 L59.6660887,17.758589 C60.642682,17.758589 61.3777522,17.4969248 61.8712994,16.9840631 C62.3333435,16.481668 62.5748666,15.7385419 62.5748666,14.7651513 C62.5748666,13.7603611 62.3543455,13.0172349 61.9238044,12.5357729 C61.4617602,12.0229113 60.747692,11.7717137 59.7605977,11.7717137 L58.0699362,11.7717137 Z" transform="rotate(12 32.952 14.765)"/>
        <path fill="#8FA6B7" d="M74.8178695,27.3099111 L77.8841624,27.3099111 C79.6063269,27.3099111 80.4674091,28.0425707 80.4674091,29.5078898 C80.4674091,30.9836755 79.5958259,31.7268016 77.8736614,31.7268016 L75.6789517,31.7268016 L75.6789517,34.7830386 L74.8178695,34.7830386 L74.8178695,27.3099111 Z M75.6789517,28.0530372 L75.6789517,30.9836755 L77.8316574,30.9836755 C78.4407155,30.9836755 78.8817577,30.8580767 79.1757858,30.6173457 C79.4593128,30.3766147 79.6063269,30.0102849 79.6063269,29.5078898 C79.6063269,29.0054947 79.4593128,28.6391649 79.1652848,28.419367 C78.8712567,28.1681695 78.4302145,28.0530372 77.8316574,28.0530372 L75.6789517,28.0530372 Z M81.5595135,27.3099111 L84.7938224,27.3099111 C85.5393937,27.3099111 86.1274498,27.4773762 86.557991,27.8227728 C86.9990331,28.178636 87.2300552,28.7019643 87.2300552,29.3927576 C87.2300552,29.8114202 87.1145441,30.17775 86.8835221,30.5022135 C86.631498,30.8371436 86.2954659,31.0464749 85.8649248,31.1511405 L85.8649248,31.1720737 C86.578993,31.3290721 86.9780311,31.7791344 87.0620391,32.5327271 L87.1775502,33.6840493 C87.2195542,34.1445782 87.3560672,34.5109079 87.5765883,34.7830386 L86.641999,34.7830386 C86.4739829,34.5318411 86.3689729,34.2073775 86.3374699,33.7887149 L86.2429609,32.7943912 C86.2009569,32.3547955 86.0434418,32.030332 85.7704157,31.8419338 C85.5183917,31.6535356 85.1613576,31.5698031 84.6888124,31.5698031 L82.4205957,31.5698031 L82.4205957,34.7830386 L81.5595135,34.7830386 L81.5595135,27.3099111 Z M82.4205957,28.0530372 L82.4205957,30.826677 L84.6888124,30.826677 C85.2348646,30.826677 85.6654057,30.6906117 85.9594338,30.4394141 C86.2219589,30.1986831 86.3584719,29.863753 86.3584719,29.4241573 C86.3584719,28.9636284 86.2219589,28.6182318 85.9699348,28.3984339 C85.6969087,28.1681695 85.2663676,28.0530372 84.6888124,28.0530372 L82.4205957,28.0530372 Z M91.9345046,27.1633792 C93.0476109,27.1633792 93.9401962,27.529709 94.5912584,28.2833017 C95.2003166,28.9950281 95.5153467,29.9160858 95.5153467,31.0569414 C95.5153467,32.1873305 95.2003166,33.0979216 94.5912584,33.8096481 C93.9401962,34.5527742 93.0476109,34.9295705 91.9240036,34.9295705 C90.8003962,34.9295705 89.918312,34.5527742 89.2672498,33.8096481 C88.6476906,33.0979216 88.3431615,32.1768639 88.3431615,31.0569414 C88.3431615,29.9265524 88.6476906,29.0054947 89.2672498,28.2937682 C89.918312,27.5401755 90.8003962,27.1633792 91.9345046,27.1633792 Z M91.9345046,27.9274385 C91.0734223,27.9274385 90.3908571,28.2205023 89.89731,28.8170965 C89.4352658,29.382291 89.2042438,30.1254171 89.2042438,31.0569414 C89.2042438,31.9779992 89.4352658,32.7211253 89.89731,33.2863198 C90.3803561,33.8724475 91.0629213,34.1655113 91.9240036,34.1655113 C92.7850858,34.1655113 93.467651,33.8724475 93.9506972,33.3072529 C94.4127413,32.7420584 94.6542644,31.9989323 94.6542644,31.0569414 C94.6542644,30.104484 94.4127413,29.3508913 93.9506972,28.7856968 C93.467651,28.2100357 92.7955868,27.9274385 91.9345046,27.9274385 Z M96.712461,27.3099111 L96.712461,34.7830386 L97.5735433,34.7830386 L97.5735433,31.2976724 L101.910458,31.2976724 L101.910458,34.7830386 L102.77154,34.7830386 L102.77154,27.3099111 L101.910458,27.3099111 L101.910458,30.5545463 L97.5735433,30.5545463 L97.5735433,27.3099111 L96.712461,27.3099111 Z M104.336189,27.3099111 L104.336189,34.7830386 L105.186771,34.7830386 L105.186771,27.3099111 L104.336189,27.3099111 Z M106.761921,27.3099111 L110.111741,27.3099111 C110.804807,27.3099111 111.36136,27.4773762 111.7709,27.8123062 C112.169938,28.1472363 112.369457,28.6077652 112.369457,29.1938928 C112.369457,29.6125554 112.253946,29.9788852 112.033425,30.2824156 C111.802403,30.5545463 111.497873,30.753411 111.119837,30.8790098 C111.613384,30.9627423 111.991421,31.1720737 112.264447,31.4860706 C112.537473,31.8000676 112.684487,32.197797 112.684487,32.7001922 C112.684487,33.4328517 112.421962,33.9771131 111.907413,34.3329763 C111.46637,34.6260401 110.857312,34.7830386 110.090739,34.7830386 L106.761921,34.7830386 L106.761921,27.3099111 Z M107.623003,28.0321041 L107.623003,30.5754794 L109.901721,30.5754794 C110.426771,30.5754794 110.825809,30.4603472 111.098835,30.2510159 C111.371861,30.0312181 111.518875,29.7067545 111.518875,29.2776254 C111.518875,28.8589628 111.382362,28.5449658 111.109336,28.3356345 C110.83631,28.1263032 110.437272,28.0321041 109.912222,28.0321041 L107.623003,28.0321041 Z M107.623003,31.2872059 L107.623003,34.0608456 L110.017232,34.0608456 C110.542282,34.0608456 110.951821,33.95618 111.266851,33.7677818 C111.634386,33.5375174 111.823405,33.1711876 111.823405,32.6897256 C111.823405,32.2082636 111.655388,31.8524004 111.340358,31.622136 C111.035829,31.3918715 110.594787,31.2872059 110.017232,31.2872059 L107.623003,31.2872059 Z M113.934106,27.3099111 L113.934106,34.7830386 L114.784687,34.7830386 L114.784687,27.3099111 L113.934106,27.3099111 Z M115.782283,27.3099111 L115.782283,28.0530372 L118.428536,28.0530372 L118.428536,34.7830386 L119.279117,34.7830386 L119.279117,28.0530372 L121.92537,28.0530372 L121.92537,27.3099111 L115.782283,27.3099111 Z M122.859959,27.3099111 L122.859959,34.7830386 L128.351983,34.7830386 L128.351983,34.0399125 L123.721041,34.0399125 L123.721041,31.2976724 L127.921442,31.2976724 L127.921442,30.5545463 L123.721041,30.5545463 L123.721041,28.0530372 L128.173466,28.0530372 L128.173466,27.3099111 L122.859959,27.3099111 Z M129.549098,27.3099111 L132.237355,27.3099111 C133.423968,27.3099111 134.316553,27.6448412 134.925611,28.3356345 C135.482165,28.9636284 135.765692,29.8742196 135.765692,31.0464749 C135.765692,32.197797 135.461163,33.1083882 134.862605,33.7573152 C134.232545,34.437642 133.329459,34.7830386 132.153347,34.7830386 L129.549098,34.7830386 L129.549098,27.3099111 Z M130.41018,28.0530372 L130.41018,34.0399125 L132.006333,34.0399125 C132.982926,34.0399125 133.717996,33.7782484 134.211543,33.2653867 C134.673587,32.7629916 134.91511,32.0198654 134.91511,31.0464749 C134.91511,30.0416846 134.694589,29.2985585 134.264048,28.8170965 C133.802004,28.3042348 133.087936,28.0530372 132.100842,28.0530372 L130.41018,28.0530372 Z" transform="rotate(12 105.292 31.046)"/>
      </g>
      <g transform="translate(0 60.473)">
        <path stroke="#8FA6B7" stroke-width="1.163" d="M0.578369366,31.1884515 L142.893825,0.924895797"/>
        <path fill="#8FA6B7" d="M11.7631175,25.4868924 L14.8294104,25.4868924 C16.5515749,25.4868924 17.4126572,26.2195519 17.4126572,27.684871 C17.4126572,29.1606567 16.5410739,29.9037829 14.8189094,29.9037829 L12.6241997,29.9037829 L12.6241997,32.9600199 L11.7631175,32.9600199 L11.7631175,25.4868924 Z M12.6241997,26.2300185 L12.6241997,29.1606567 L14.7769054,29.1606567 C15.3859635,29.1606567 15.8270057,29.035058 16.1210338,28.794327 C16.4045608,28.553596 16.5515749,28.1872662 16.5515749,27.684871 C16.5515749,27.1824759 16.4045608,26.8161461 16.1105328,26.5963483 C15.8165047,26.3451507 15.3754625,26.2300185 14.7769054,26.2300185 L12.6241997,26.2300185 Z M18.5047615,25.4868924 L21.7390704,25.4868924 C22.4846417,25.4868924 23.0726978,25.6543574 23.503239,25.9997541 C23.9442811,26.3556173 24.1753032,26.8789455 24.1753032,27.5697388 C24.1753032,27.9884014 24.0597921,28.3547312 23.8287701,28.6791947 C23.576746,29.0141248 23.2407139,29.2234561 22.8101728,29.3281218 L22.8101728,29.3490549 C23.524241,29.5060534 23.9232791,29.9561157 24.0072871,30.7097084 L24.1227982,31.8610305 C24.1648022,32.3215594 24.3013152,32.6878892 24.5218363,32.9600199 L23.587247,32.9600199 C23.419231,32.7088223 23.3142209,32.3843588 23.2827179,31.9656962 L23.1882089,30.9713725 C23.1462049,30.5317768 22.9886898,30.2073132 22.7156637,30.0189151 C22.4636397,29.8305169 22.1066056,29.7467844 21.6340604,29.7467844 L19.3658437,29.7467844 L19.3658437,32.9600199 L18.5047615,32.9600199 L18.5047615,25.4868924 Z M19.3658437,26.2300185 L19.3658437,29.0036583 L21.6340604,29.0036583 C22.1801126,29.0036583 22.6106537,28.8675929 22.9046818,28.6163953 C23.1672069,28.3756643 23.3037199,28.0407343 23.3037199,27.6011385 C23.3037199,27.1406097 23.1672069,26.795213 22.9151828,26.5754151 C22.6421567,26.3451507 22.2116156,26.2300185 21.6340604,26.2300185 L19.3658437,26.2300185 Z M28.8797526,25.3403605 C29.9928589,25.3403605 30.8854442,25.7066902 31.5365064,26.4602829 C32.1455646,27.1720094 32.4605947,28.0930671 32.4605947,29.2339227 C32.4605947,30.3643117 32.1455646,31.2749029 31.5365064,31.9866293 C30.8854442,32.7297554 29.9928589,33.1065518 28.8692516,33.1065518 C27.7456442,33.1065518 26.86356,32.7297554 26.2124978,31.9866293 C25.5929386,31.2749029 25.2884095,30.3538452 25.2884095,29.2339227 C25.2884095,28.1035337 25.5929386,27.1824759 26.2124978,26.4707495 C26.86356,25.7171568 27.7456442,25.3403605 28.8797526,25.3403605 Z M28.8797526,26.1044197 C28.0186703,26.1044197 27.3361051,26.3974835 26.842558,26.9940777 C26.3805138,27.5592723 26.1494918,28.3023984 26.1494918,29.2339227 C26.1494918,30.1549804 26.3805138,30.8981065 26.842558,31.4633011 C27.3256041,32.0494287 28.0081693,32.3424925 28.8692516,32.3424925 C29.7303338,32.3424925 30.412899,32.0494287 30.8959452,31.4842342 C31.3579893,30.9190397 31.5995124,30.1759136 31.5995124,29.2339227 C31.5995124,28.2814653 31.3579893,27.5278726 30.8959452,26.9626781 C30.412899,26.387017 29.7408348,26.1044197 28.8797526,26.1044197 Z M33.657709,25.4868924 L33.657709,32.9600199 L34.5187913,32.9600199 L34.5187913,29.4746537 L38.8557056,29.4746537 L38.8557056,32.9600199 L39.7167878,32.9600199 L39.7167878,25.4868924 L38.8557056,25.4868924 L38.8557056,28.7315276 L34.5187913,28.7315276 L34.5187913,25.4868924 L33.657709,25.4868924 Z M41.2814373,25.4868924 L41.2814373,32.9600199 L42.1320186,32.9600199 L42.1320186,25.4868924 L41.2814373,25.4868924 Z M43.707169,25.4868924 L47.056989,25.4868924 C47.7500552,25.4868924 48.3066084,25.6543574 48.7161475,25.9892875 C49.1151857,26.3242176 49.3147047,26.7847464 49.3147047,27.3708741 C49.3147047,27.7895367 49.1991937,28.1558665 48.9786726,28.4593969 C48.7476505,28.7315276 48.4431215,28.9303923 48.0650853,29.0559911 C48.5586325,29.1397236 48.9366686,29.3490549 49.2096947,29.6630519 C49.4827208,29.9770488 49.6297348,30.3747783 49.6297348,30.8771734 C49.6297348,31.609833 49.3672097,32.1540944 48.8526606,32.5099576 C48.4116184,32.8030214 47.8025603,32.9600199 47.035987,32.9600199 L43.707169,32.9600199 L43.707169,25.4868924 Z M44.5682513,26.2090854 L44.5682513,28.7524607 L46.846969,28.7524607 C47.3720191,28.7524607 47.7710572,28.6373285 48.0440833,28.4279972 C48.3171094,28.2081993 48.4641235,27.8837358 48.4641235,27.4546066 C48.4641235,27.035944 48.3276104,26.7219471 48.0545843,26.5126158 C47.7815583,26.3032845 47.3825201,26.2090854 46.85747,26.2090854 L44.5682513,26.2090854 Z M44.5682513,29.4641871 L44.5682513,32.2378269 L46.96248,32.2378269 C47.4875302,32.2378269 47.8970693,32.1331612 48.2120994,31.9447631 C48.5796345,31.7144986 48.7686525,31.3481688 48.7686525,30.8667069 C48.7686525,30.3852449 48.6006365,30.0293816 48.2856064,29.7991172 C47.9810773,29.5688528 47.5400352,29.4641871 46.96248,29.4641871 L44.5682513,29.4641871 Z M50.8793542,25.4868924 L50.8793542,32.9600199 L51.7299354,32.9600199 L51.7299354,25.4868924 L50.8793542,25.4868924 Z M52.7275307,25.4868924 L52.7275307,26.2300185 L55.3737835,26.2300185 L55.3737835,32.9600199 L56.2243648,32.9600199 L56.2243648,26.2300185 L58.8706176,26.2300185 L58.8706176,25.4868924 L52.7275307,25.4868924 Z M59.8052069,25.4868924 L59.8052069,32.9600199 L65.2972315,32.9600199 L65.2972315,32.2168938 L60.6662891,32.2168938 L60.6662891,29.4746537 L64.8666904,29.4746537 L64.8666904,28.7315276 L60.6662891,28.7315276 L60.6662891,26.2300185 L65.1187144,26.2300185 L65.1187144,25.4868924 L59.8052069,25.4868924 Z M66.4943459,25.4868924 L69.1826027,25.4868924 C70.369216,25.4868924 71.2618013,25.8218225 71.8708595,26.5126158 C72.4274126,27.1406097 72.7109397,28.0512008 72.7109397,29.2234561 C72.7109397,30.3747783 72.4064106,31.2853695 71.8078535,31.9342965 C71.1777933,32.6146232 70.274707,32.9600199 69.0985946,32.9600199 L66.4943459,32.9600199 L66.4943459,25.4868924 Z M67.3554281,26.2300185 L67.3554281,32.2168938 L68.9515806,32.2168938 C69.9281739,32.2168938 70.6632441,31.9552296 71.1567913,31.4423679 C71.6188354,30.9399728 71.8603585,30.1968467 71.8603585,29.2234561 C71.8603585,28.2186659 71.6398374,27.4755397 71.2092963,26.9940777 C70.7472521,26.4812161 70.0331839,26.2300185 69.0460896,26.2300185 L67.3554281,26.2300185 Z" transform="rotate(-13 42.237 29.223)"/>
        <path fill="#8FA6B7" d="M84.1033614,9.20556882 L87.1696543,9.20556882 C88.8918188,9.20556882 89.7529011,9.93822838 89.7529011,11.4035475 C89.7529011,12.8793332 88.8813178,13.6224593 87.1591533,13.6224593 L84.9644436,13.6224593 L84.9644436,16.6786963 L84.1033614,16.6786963 L84.1033614,9.20556882 Z M84.9644436,9.94869494 L84.9644436,12.8793332 L87.1171493,12.8793332 C87.7262074,12.8793332 88.1672496,12.7537344 88.4612777,12.5130034 C88.7448048,12.2722724 88.8918188,11.9059426 88.8918188,11.4035475 C88.8918188,10.9011524 88.7448048,10.5348226 88.4507767,10.3150247 C88.1567486,10.0638272 87.7157064,9.94869494 87.1171493,9.94869494 L84.9644436,9.94869494 Z M90.8450054,9.20556882 L94.0793144,9.20556882 C94.8248856,9.20556882 95.4129418,9.37303386 95.8434829,9.71843051 C96.284525,10.0742937 96.5155471,10.597622 96.5155471,11.2884153 C96.5155471,11.7070779 96.400036,12.0734077 96.169014,12.3978712 C95.9169899,12.7328013 95.5809578,12.9421326 95.1504167,13.0467982 L95.1504167,13.0677314 C95.8644849,13.2247298 96.263523,13.6747921 96.347531,14.4283848 L96.4630421,15.579707 C96.5050461,16.0402359 96.6415591,16.4065656 96.8620802,16.6786963 L95.9274909,16.6786963 C95.7594749,16.4274988 95.6544648,16.1030352 95.6229618,15.6843726 L95.5284528,14.690049 C95.4864488,14.2504532 95.3289337,13.9259897 95.0559076,13.7375915 C94.8038836,13.5491934 94.4468495,13.4654608 93.9743043,13.4654608 L91.7060876,13.4654608 L91.7060876,16.6786963 L90.8450054,16.6786963 L90.8450054,9.20556882 Z M91.7060876,9.94869494 L91.7060876,12.7223347 L93.9743043,12.7223347 C94.5203565,12.7223347 94.9508976,12.5862694 95.2449257,12.3350718 C95.5074508,12.0943408 95.6439638,11.7594107 95.6439638,11.319815 C95.6439638,10.8592861 95.5074508,10.5138895 95.2554267,10.2940916 C94.9824006,10.0638272 94.5518595,9.94869494 93.9743043,9.94869494 L91.7060876,9.94869494 Z M101.219996,9.05903691 C102.333103,9.05903691 103.225688,9.42536669 103.87675,10.1789594 C104.485808,10.8906858 104.800839,11.8117435 104.800839,12.9525991 C104.800839,14.0829882 104.485808,14.9935793 103.87675,15.7053058 C103.225688,16.4484319 102.333103,16.8252282 101.209495,16.8252282 C100.085888,16.8252282 99.2038039,16.4484319 98.5527417,15.7053058 C97.9331825,14.9935793 97.6286534,14.0725216 97.6286534,12.9525991 C97.6286534,11.8222101 97.9331825,10.9011524 98.5527417,10.1894259 C99.2038039,9.43583325 100.085888,9.05903691 101.219996,9.05903691 Z M101.219996,9.82309616 C100.358914,9.82309616 99.676349,10.11616 99.1828019,10.7127542 C98.7207577,11.2779487 98.4897357,12.0210748 98.4897357,12.9525991 C98.4897357,13.8736569 98.7207577,14.616783 99.1828019,15.1819775 C99.665848,15.7681052 100.348413,16.061169 101.209495,16.061169 C102.070578,16.061169 102.753143,15.7681052 103.236189,15.2029106 C103.698233,14.6377161 103.939756,13.89459 103.939756,12.9525991 C103.939756,12.0001417 103.698233,11.246549 103.236189,10.6813545 C102.753143,10.1056934 102.081079,9.82309616 101.219996,9.82309616 Z M105.997953,9.20556882 L105.997953,16.6786963 L106.859035,16.6786963 L106.859035,13.1933301 L111.195949,13.1933301 L111.195949,16.6786963 L112.057032,16.6786963 L112.057032,9.20556882 L111.195949,9.20556882 L111.195949,12.450204 L106.859035,12.450204 L106.859035,9.20556882 L105.997953,9.20556882 Z M113.621681,9.20556882 L113.621681,16.6786963 L114.472262,16.6786963 L114.472262,9.20556882 L113.621681,9.20556882 Z M116.047413,9.20556882 L119.397233,9.20556882 C120.090299,9.20556882 120.646852,9.37303386 121.056391,9.70796395 C121.45543,10.042894 121.654949,10.5034229 121.654949,11.0895505 C121.654949,11.5082132 121.539438,11.8745429 121.318917,12.1780733 C121.087894,12.450204 120.783365,12.6490688 120.405329,12.7746675 C120.898876,12.8584001 121.276913,13.0677314 121.549939,13.3817283 C121.822965,13.6957253 121.969979,14.0934547 121.969979,14.5958499 C121.969979,15.3285094 121.707454,15.8727708 121.192904,16.228634 C120.751862,16.5216979 120.142804,16.6786963 119.376231,16.6786963 L116.047413,16.6786963 L116.047413,9.20556882 Z M116.908495,9.92776181 L116.908495,12.4711371 L119.187213,12.4711371 C119.712263,12.4711371 120.111301,12.3560049 120.384327,12.1466736 C120.657353,11.9268758 120.804367,11.6024122 120.804367,11.1732831 C120.804367,10.7546205 120.667854,10.4406235 120.394828,10.2312922 C120.121802,10.0219609 119.722764,9.92776181 119.197714,9.92776181 L116.908495,9.92776181 Z M116.908495,13.1828636 L116.908495,15.9565033 L119.302724,15.9565033 C119.827774,15.9565033 120.237313,15.8518377 120.552343,15.6634395 C120.919878,15.4331751 121.108896,15.0668453 121.108896,14.5853833 C121.108896,14.1039213 120.94088,13.7480581 120.62585,13.5177937 C120.321321,13.2875292 119.880279,13.1828636 119.302724,13.1828636 L116.908495,13.1828636 Z M123.219598,9.20556882 L123.219598,16.6786963 L124.070179,16.6786963 L124.070179,9.20556882 L123.219598,9.20556882 Z M125.067775,9.20556882 L125.067775,9.94869494 L127.714027,9.94869494 L127.714027,16.6786963 L128.564609,16.6786963 L128.564609,9.94869494 L131.210861,9.94869494 L131.210861,9.20556882 L125.067775,9.20556882 Z M132.145451,9.20556882 L132.145451,16.6786963 L137.637475,16.6786963 L137.637475,15.9355702 L133.006533,15.9355702 L133.006533,13.1933301 L137.206934,13.1933301 L137.206934,12.450204 L133.006533,12.450204 L133.006533,9.94869494 L137.458958,9.94869494 L137.458958,9.20556882 L132.145451,9.20556882 Z M138.83459,9.20556882 L141.522847,9.20556882 C142.70946,9.20556882 143.602045,9.5404989 144.211103,10.2312922 C144.767657,10.8592861 145.051184,11.7698773 145.051184,12.9421326 C145.051184,14.0934547 144.746655,15.0040459 144.148097,15.6529729 C143.518037,16.3332997 142.614951,16.6786963 141.438839,16.6786963 L138.83459,16.6786963 L138.83459,9.20556882 Z M139.695672,9.94869494 L139.695672,15.9355702 L141.291824,15.9355702 C142.268418,15.9355702 143.003488,15.6739061 143.497035,15.1610444 C143.959079,14.6586493 144.200602,13.9155231 144.200602,12.9421326 C144.200602,11.9373423 143.980081,11.1942162 143.54954,10.7127542 C143.087496,10.1998925 142.373428,9.94869494 141.386334,9.94869494 L139.695672,9.94869494 Z" transform="rotate(-13 114.577 12.942)"/>
        <path stroke="#8FA6B7" stroke-width="1.163" d="M12.0948414,42.5572068 L147.370966,13.1818927"/>
      </g>
      <path stroke="#8FA6B7" stroke-width="1.163" d="M.407202368 14.541681L147.376184 62.9757204M.526061859.548905925L147.447228 48.9655432"/>
      <path fill="#8FA6B7" d="M1.94166608,14.4755801 L5.007959,14.4755801 C6.73012352,14.4755801 7.59120577,15.2082396 7.59120577,16.6735588 C7.59120577,18.1493444 6.71962251,18.8924706 4.997458,18.8924706 L2.80274834,18.8924706 L2.80274834,21.9487076 L1.94166608,21.9487076 L1.94166608,14.4755801 Z M2.80274834,15.2187062 L2.80274834,18.1493444 L4.95545398,18.1493444 C5.56451217,18.1493444 6.0055543,18.0237457 6.29958239,17.7830147 C6.58310947,17.5422837 6.73012352,17.1759539 6.73012352,16.6735588 C6.73012352,16.1711636 6.58310947,15.8048338 6.28908138,15.585036 C5.9950533,15.3338384 5.55401116,15.2187062 4.95545398,15.2187062 L2.80274834,15.2187062 Z M8.6833101,14.4755801 L11.9176191,14.4755801 C12.6631903,14.4755801 13.2512465,14.6430451 13.6817876,14.9884418 C14.1228297,15.344305 14.3538518,15.8676332 14.3538518,16.5584265 C14.3538518,16.9770891 14.2383408,17.3434189 14.0073187,17.6678824 C13.7552946,18.0028125 13.4192625,18.2121438 12.9887214,18.3168095 L12.9887214,18.3377426 C13.7027896,18.4947411 14.1018277,18.9448034 14.1858358,19.6983961 L14.3013468,20.8497182 C14.3433508,21.3102471 14.4798638,21.6765769 14.7003849,21.9487076 L13.7657956,21.9487076 C13.5977796,21.69751 13.4927695,21.3730465 13.4612665,20.9543839 L13.3667575,19.9600602 C13.3247535,19.5204645 13.1672384,19.196001 12.8942124,19.0076028 C12.6421883,18.8192046 12.2851542,18.7354721 11.812609,18.7354721 L9.54439236,18.7354721 L9.54439236,21.9487076 L8.6833101,21.9487076 L8.6833101,14.4755801 Z M9.54439236,15.2187062 L9.54439236,17.992346 L11.812609,17.992346 C12.3586612,17.992346 12.7892023,17.8562806 13.0832304,17.6050831 C13.3457555,17.3643521 13.4822685,17.029422 13.4822685,16.5898262 C13.4822685,16.1292974 13.3457555,15.7839007 13.0937314,15.5641029 C12.8207053,15.3338384 12.3901642,15.2187062 11.812609,15.2187062 L9.54439236,15.2187062 Z M19.0583012,14.3290482 C20.1714075,14.3290482 21.0639928,14.6953779 21.715055,15.4489706 C22.3241132,16.1606971 22.6391433,17.0817548 22.6391433,18.2226104 C22.6391433,19.3529994 22.3241132,20.2635906 21.715055,20.975317 C21.0639928,21.7184432 20.1714075,22.0952395 19.0478002,22.0952395 C17.9241929,22.0952395 17.0421086,21.7184432 16.3910464,20.975317 C15.7714872,20.2635906 15.4669581,19.3425329 15.4669581,18.2226104 C15.4669581,17.0922214 15.7714872,16.1711636 16.3910464,15.4594372 C17.0421086,14.7058445 17.9241929,14.3290482 19.0583012,14.3290482 Z M19.0583012,15.0931074 C18.197219,15.0931074 17.5146537,15.3861712 17.0211066,15.9827655 C16.5590625,16.54796 16.3280404,17.2910861 16.3280404,18.2226104 C16.3280404,19.1436681 16.5590625,19.8867943 17.0211066,20.4519888 C17.5041527,21.0381164 18.1867179,21.3311802 19.0478002,21.3311802 C19.9088825,21.3311802 20.5914477,21.0381164 21.0744938,20.4729219 C21.536538,19.9077274 21.778061,19.1646013 21.778061,18.2226104 C21.778061,17.270153 21.536538,16.5165603 21.0744938,15.9513658 C20.5914477,15.3757047 19.9193835,15.0931074 19.0583012,15.0931074 Z M23.8362576,14.4755801 L23.8362576,21.9487076 L24.6973399,21.9487076 L24.6973399,18.4633414 L29.0342542,18.4633414 L29.0342542,21.9487076 L29.8953365,21.9487076 L29.8953365,14.4755801 L29.0342542,14.4755801 L29.0342542,17.7202153 L24.6973399,17.7202153 L24.6973399,14.4755801 L23.8362576,14.4755801 Z M31.4599859,14.4755801 L31.4599859,21.9487076 L32.3105672,21.9487076 L32.3105672,14.4755801 L31.4599859,14.4755801 Z M33.8857177,14.4755801 L37.2355377,14.4755801 C37.9286039,14.4755801 38.485157,14.6430451 38.8946962,14.9779752 C39.2937343,15.3129053 39.4932533,15.7734342 39.4932533,16.3595618 C39.4932533,16.7782244 39.3777423,17.1445542 39.1572212,17.4480846 C38.9261992,17.7202153 38.6216701,17.91908 38.243634,18.0446788 C38.7371811,18.1284113 39.1152172,18.3377426 39.3882433,18.6517396 C39.6612694,18.9657365 39.8082834,19.363466 39.8082834,19.8658611 C39.8082834,20.5985207 39.5457584,21.1427821 39.0312092,21.4986453 C38.5901671,21.7917091 37.9811089,21.9487076 37.2145357,21.9487076 L33.8857177,21.9487076 L33.8857177,14.4755801 Z M34.7467999,15.1977731 L34.7467999,17.7411484 L37.0255176,17.7411484 C37.5505678,17.7411484 37.9496059,17.6260162 38.222632,17.4166849 C38.495658,17.196887 38.6426721,16.8724235 38.6426721,16.4432943 C38.6426721,16.0246317 38.506159,15.7106348 38.233133,15.5013035 C37.9601069,15.2919722 37.5610688,15.1977731 37.0360186,15.1977731 L34.7467999,15.1977731 Z M34.7467999,18.4528748 L34.7467999,21.2265146 L37.1410286,21.2265146 C37.6660788,21.2265146 38.0756179,21.1218489 38.390648,20.9334508 C38.7581831,20.7031863 38.9472012,20.3368566 38.9472012,19.8553946 C38.9472012,19.3739326 38.7791851,19.0180693 38.464155,18.7878049 C38.1596259,18.5575405 37.7185838,18.4528748 37.1410286,18.4528748 L34.7467999,18.4528748 Z M41.0579028,14.4755801 L41.0579028,21.9487076 L41.9084841,21.9487076 L41.9084841,14.4755801 L41.0579028,14.4755801 Z M42.9060794,14.4755801 L42.9060794,15.2187062 L45.5523322,15.2187062 L45.5523322,21.9487076 L46.4029134,21.9487076 L46.4029134,15.2187062 L49.0491662,15.2187062 L49.0491662,14.4755801 L42.9060794,14.4755801 Z M49.9837555,14.4755801 L49.9837555,21.9487076 L55.4757801,21.9487076 L55.4757801,21.2055815 L50.8448377,21.2055815 L50.8448377,18.4633414 L55.045239,18.4633414 L55.045239,17.7202153 L50.8448377,17.7202153 L50.8448377,15.2187062 L55.2972631,15.2187062 L55.2972631,14.4755801 L49.9837555,14.4755801 Z M56.6728945,14.4755801 L59.3611513,14.4755801 C60.5477646,14.4755801 61.4403499,14.8105102 62.0494081,15.5013035 C62.6059613,16.1292974 62.8894883,17.0398885 62.8894883,18.2121438 C62.8894883,19.363466 62.5849593,20.2740572 61.9864021,20.9229842 C61.3563419,21.6033109 60.4532556,21.9487076 59.2771433,21.9487076 L56.6728945,21.9487076 L56.6728945,14.4755801 Z M57.5339767,15.2187062 L57.5339767,21.2055815 L59.1301292,21.2055815 C60.1067225,21.2055815 60.8417927,20.9439173 61.3353399,20.4310556 C61.797384,19.9286605 62.0389071,19.1855344 62.0389071,18.2121438 C62.0389071,17.2073536 61.818386,16.4642275 61.3878449,15.9827655 C60.9258008,15.4699038 60.2117325,15.2187062 59.2246382,15.2187062 L57.5339767,15.2187062 Z" transform="rotate(18 32.416 18.212)"/>
      <path fill="#8FA6B7" d="M73.2194134,37.2533936 L76.2857063,37.2533936 C78.0078708,37.2533936 78.8689531,37.9860532 78.8689531,39.4513723 C78.8689531,40.927158 77.9973698,41.6702841 76.2752053,41.6702841 L74.0804956,41.6702841 L74.0804956,44.7265211 L73.2194134,44.7265211 L73.2194134,37.2533936 Z M74.0804956,37.9965197 L74.0804956,40.927158 L76.2332013,40.927158 C76.8422595,40.927158 77.2833016,40.8015592 77.5773297,40.5608282 C77.8608568,40.3200972 78.0078708,39.9537674 78.0078708,39.4513723 C78.0078708,38.9489772 77.8608568,38.5826474 77.5668287,38.3628495 C77.2728006,38.1116519 76.8317584,37.9965197 76.2332013,37.9965197 L74.0804956,37.9965197 Z M79.9610574,37.2533936 L83.1953664,37.2533936 C83.9409376,37.2533936 84.5289938,37.4208586 84.9595349,37.7662553 C85.400577,38.1221185 85.6315991,38.6454468 85.6315991,39.3362401 C85.6315991,39.7549027 85.516088,40.1212324 85.285066,40.445696 C85.0330419,40.7806261 84.6970098,40.9899574 84.2664687,41.094623 L84.2664687,41.1155561 C84.9805369,41.2725546 85.379575,41.7226169 85.463583,42.4762096 L85.5790941,43.6275318 C85.6210981,44.0880606 85.7576111,44.4543904 85.9781322,44.7265211 L85.0435429,44.7265211 C84.8755269,44.4753235 84.7705168,44.15086 84.7390138,43.7321974 L84.6445048,42.7378737 C84.6025008,42.298278 84.4449857,41.9738145 84.1719596,41.7854163 C83.9199356,41.5970181 83.5629015,41.5132856 83.0903563,41.5132856 L80.8221396,41.5132856 L80.8221396,44.7265211 L79.9610574,44.7265211 L79.9610574,37.2533936 Z M80.8221396,37.9965197 L80.8221396,40.7701595 L83.0903563,40.7701595 C83.6364085,40.7701595 84.0669496,40.6340941 84.3609777,40.3828966 C84.6235028,40.1421656 84.7600158,39.8072355 84.7600158,39.3676398 C84.7600158,38.9071109 84.6235028,38.5617142 84.3714787,38.3419164 C84.0984526,38.1116519 83.6679115,37.9965197 83.0903563,37.9965197 L80.8221396,37.9965197 Z M90.3360485,37.1068617 C91.4491548,37.1068617 92.3417401,37.4731915 92.9928023,38.2267842 C93.6018605,38.9385106 93.9168906,39.8595683 93.9168906,41.0004239 C93.9168906,42.130813 93.6018605,43.0414041 92.9928023,43.7531306 C92.3417401,44.4962567 91.4491548,44.873053 90.3255475,44.873053 C89.2019402,44.873053 88.3198559,44.4962567 87.6687937,43.7531306 C87.0492345,43.0414041 86.7447054,42.1203464 86.7447054,41.0004239 C86.7447054,39.8700349 87.0492345,38.9489772 87.6687937,38.2372507 C88.3198559,37.483658 89.2019402,37.1068617 90.3360485,37.1068617 Z M90.3360485,37.8709209 C89.4749662,37.8709209 88.792401,38.1639848 88.2988539,38.760579 C87.8368097,39.3257735 87.6057877,40.0688996 87.6057877,41.0004239 C87.6057877,41.9214817 87.8368097,42.6646078 88.2988539,43.2298023 C88.7819,43.8159299 89.4644652,44.1089938 90.3255475,44.1089938 C91.1866297,44.1089938 91.869195,43.8159299 92.3522411,43.2507354 C92.8142852,42.6855409 93.0558083,41.9424148 93.0558083,41.0004239 C93.0558083,40.0479665 92.8142852,39.2943738 92.3522411,38.7291793 C91.869195,38.1535182 91.1971308,37.8709209 90.3360485,37.8709209 Z M95.1140049,37.2533936 L95.1140049,44.7265211 L95.9750872,44.7265211 L95.9750872,41.2411549 L100.312001,41.2411549 L100.312001,44.7265211 L101.173084,44.7265211 L101.173084,37.2533936 L100.312001,37.2533936 L100.312001,40.4980288 L95.9750872,40.4980288 L95.9750872,37.2533936 L95.1140049,37.2533936 Z M102.737733,37.2533936 L102.737733,44.7265211 L103.588314,44.7265211 L103.588314,37.2533936 L102.737733,37.2533936 Z M105.163465,37.2533936 L108.513285,37.2533936 C109.206351,37.2533936 109.762904,37.4208586 110.172443,37.7557887 C110.571482,38.0907188 110.771001,38.5512477 110.771001,39.1373753 C110.771001,39.5560379 110.65549,39.9223677 110.434969,40.2258981 C110.203946,40.4980288 109.899417,40.6968935 109.521381,40.8224923 C110.014928,40.9062248 110.392965,41.1155561 110.665991,41.4295531 C110.939017,41.74355 111.086031,42.1412795 111.086031,42.6436746 C111.086031,43.3763342 110.823506,43.9205956 110.308956,44.2764588 C109.867914,44.5695226 109.258856,44.7265211 108.492283,44.7265211 L105.163465,44.7265211 L105.163465,37.2533936 Z M106.024547,37.9755866 L106.024547,40.5189619 L108.303265,40.5189619 C108.828315,40.5189619 109.227353,40.4038297 109.500379,40.1944984 C109.773405,39.9747005 109.920419,39.650237 109.920419,39.2211078 C109.920419,38.8024452 109.783906,38.4884483 109.51088,38.279117 C109.237854,38.0697857 108.838816,37.9755866 108.313766,37.9755866 L106.024547,37.9755866 Z M106.024547,41.2306884 L106.024547,44.0043281 L108.418776,44.0043281 C108.943826,44.0043281 109.353365,43.8996625 109.668395,43.7112643 C110.03593,43.4809999 110.224948,43.1146701 110.224948,42.6332081 C110.224948,42.1517461 110.056932,41.7958829 109.741902,41.5656184 C109.437373,41.335354 108.996331,41.2306884 108.418776,41.2306884 L106.024547,41.2306884 Z M112.33565,37.2533936 L112.33565,44.7265211 L113.186231,44.7265211 L113.186231,37.2533936 L112.33565,37.2533936 Z M114.183827,37.2533936 L114.183827,37.9965197 L116.830079,37.9965197 L116.830079,44.7265211 L117.680661,44.7265211 L117.680661,37.9965197 L120.326913,37.9965197 L120.326913,37.2533936 L114.183827,37.2533936 Z M121.261503,37.2533936 L121.261503,44.7265211 L126.753527,44.7265211 L126.753527,43.983395 L122.122585,43.983395 L122.122585,41.2411549 L126.322986,41.2411549 L126.322986,40.4980288 L122.122585,40.4980288 L122.122585,37.9965197 L126.57501,37.9965197 L126.57501,37.2533936 L121.261503,37.2533936 Z M127.950642,37.2533936 L130.638899,37.2533936 C131.825512,37.2533936 132.718097,37.5883237 133.327155,38.279117 C133.883709,38.9071109 134.167236,39.8177021 134.167236,40.9899574 C134.167236,42.1412795 133.862707,43.0518707 133.264149,43.7007977 C132.634089,44.3811245 131.731003,44.7265211 130.554891,44.7265211 L127.950642,44.7265211 L127.950642,37.2533936 Z M128.811724,37.9965197 L128.811724,43.983395 L130.407877,43.983395 C131.38447,43.983395 132.11954,43.7217309 132.613087,43.2088692 C133.075131,42.706474 133.316654,41.9633479 133.316654,40.9899574 C133.316654,39.9851671 133.096133,39.242041 132.665592,38.760579 C132.203548,38.2477173 131.48948,37.9965197 130.502386,37.9965197 L128.811724,37.9965197 Z" transform="rotate(18 103.693 40.99)"/>
      <g transform="translate(119.011 116.295)">
        <path fill="#EAEAEA" stroke="#8FA6B7" stroke-width="1.355" d="M28.0026751,9.30361346 L4.66711251,9.30361346 C2.08953744,9.30361346 0,7.22092864 0,4.65180673 C0,2.08268481 2.08953744,0 4.66711251,0 L28.0026751,0"/>
        <ellipse cx="10.501" cy="4.652" fill="#8FA6B7" rx="1.167" ry="1.163"/>
        <ellipse cx="19.835" cy="4.652" fill="#8FA6B7" rx="1.167" ry="1.163"/>
      </g>
      <g transform="translate(118.887 21.452)">
        <path fill="#EAEAEA" stroke="#8FA6B7" stroke-width="1.355" d="M28.0026751,9.30361346 L4.66711251,9.30361346 C2.08953744,9.30361346 0,7.22092864 0,4.65180673 C0,2.08268481 2.08953744,0 4.66711251,0 L28.0026751,0"/>
        <ellipse cx="10.501" cy="4.652" fill="#8FA6B7" rx="1.167" ry="1.163"/>
        <ellipse cx="19.835" cy="4.652" fill="#8FA6B7" rx="1.167" ry="1.163"/>
      </g>
      <g transform="translate(65.34)">
        <ellipse cx="5.834" cy="5.815" fill="#EAEAEA" stroke="#8FA6B7" stroke-width="1.355" rx="5.834" ry="5.815"/>
        <path fill="#8FA6B7" d="M4.01153832,8.79408601 C3.00522248,8.18127929 2.33355625,7.07619964 2.33355625,5.81475841 C2.33355625,3.88791697 3.90070934,2.32590336 5.83389064,2.32590336 C7.09948237,2.32590336 8.20819805,2.99536686 8.82302108,3.9983825 C8.29219748,3.67513183 7.66825833,3.48885505 7.00066876,3.48885505 C5.06748747,3.48885505 3.50033438,5.05086866 3.50033438,6.97771009 C3.50033438,7.6431103 3.68722407,8.26500324 4.01153832,8.79408601 Z"/>
      </g>
    </g>
    <path stroke="#8FA6B7" stroke-linecap="square" stroke-width="1.581" d="M0,1.81266687 L320.52704,1.81266687" transform="translate(0 268.71)"/>
    <g transform="translate(37.365 179.516)">
      <g transform="translate(224.187)">
        <use fill="#D7E0E6" xlink:href="#403-b"/>
        <rect width="6.203" height="83.629" x="8.543" y="11.907" stroke="#8FA6B7" stroke-width="1.234"/>
        <use fill="#D7E0E6" xlink:href="#403-c"/>
        <rect width="17.978" height="3.702" x="2.881" y="26.585" stroke="#8FA6B7" stroke-width="1.234"/>
        <use fill="#EAEAEA" xlink:href="#403-d"/>
        <path stroke="#8FA6B7" stroke-width="1.234" d="M0.639781824,99.526315 L23.1217304,99.526315 C22.9465481,97.7685468 22.2201531,96.3283401 20.9340384,95.1768881 C18.6871579,93.1652674 16.338038,92.340362 12.0425389,92.0925351 C8.13778365,91.8672519 4.76954192,93.2538697 2.52346967,95.6795057 C1.38467669,96.9093403 0.762875446,98.186785 0.639781824,99.526315 Z"/>
        <ellipse cx="12.455" cy="9.032" fill="#FFF" stroke="#8FA6B7" stroke-width="1.29" rx="9.058" ry="9.032"/>
        <path fill="#8FA6B7" d="M8.73634989,11.6111206 C7.56200946,10.7951605 6.79354839,9.43867934 6.79354839,7.90322581 C6.79354839,5.40903661 8.8212652,3.38709677 11.3225806,3.38709677 C12.8624212,3.38709677 14.222778,4.1533685 15.0410695,5.32436323 C14.3078125,4.81487854 13.4163136,4.51612903 12.4548387,4.51612903 C9.95352326,4.51612903 7.92580645,6.53806887 7.92580645,9.03225806 C7.92580645,9.99099372 8.22540953,10.8799527 8.73634989,11.6111206 Z"/>
      </g>
      <use fill="#D7E0E6" xlink:href="#403-e"/>
      <rect width="6.203" height="83.629" x="8.543" y="11.907" stroke="#8FA6B7" stroke-width="1.234"/>
      <use fill="#D7E0E6" xlink:href="#403-f"/>
      <rect width="17.978" height="3.702" x="2.881" y="26.585" stroke="#8FA6B7" stroke-width="1.234"/>
      <use fill="#EAEAEA" xlink:href="#403-g"/>
      <path stroke="#8FA6B7" stroke-width="1.234" d="M0.639781824,99.526315 L23.1217304,99.526315 C22.9465481,97.7685468 22.2201531,96.3283401 20.9340384,95.1768881 C18.6871579,93.1652674 16.338038,92.340362 12.0425389,92.0925351 C8.13778365,91.8672519 4.76954192,93.2538697 2.52346967,95.6795057 C1.38467669,96.9093403 0.762875446,98.186785 0.639781824,99.526315 Z"/>
      <ellipse cx="12.455" cy="9.032" fill="#FFF" stroke="#8FA6B7" stroke-width="1.29" rx="9.058" ry="9.032"/>
      <path fill="#8FA6B7" d="M8.73634989,11.6111206 C7.56200946,10.7951605 6.79354839,9.43867934 6.79354839,7.90322581 C6.79354839,5.40903661 8.8212652,3.38709677 11.3225806,3.38709677 C12.8624212,3.38709677 14.222778,4.1533685 15.0410695,5.32436323 C14.3078125,4.81487854 13.4163136,4.51612903 12.4548387,4.51612903 C9.95352326,4.51612903 7.92580645,6.53806887 7.92580645,9.03225806 C7.92580645,9.99099372 8.22540953,10.8799527 8.73634989,11.6111206 Z"/>
      <g transform="translate(16.984 22.58)">
        <g transform="translate(21.083 8.767)">
          <mask id="403-i" fill="#fff">
            <use xlink:href="#403-h"/>
          </mask>
          <use fill="#CED6DD" stroke="#8FA6B7" stroke-width="1.355" xlink:href="#403-h"/>
          <path fill="#8FA6B7" fill-rule="nonzero" d="M-2.91155742,9.15309084 L-3.13948832,8.00646555 L16.5808683,4.10192968 L16.8087992,5.24855497 L-2.91155742,9.15309084 Z M6.60302076,14.9502059 L6.2768482,13.8274728 L25.5002478,8.2649211 L25.8264204,9.38765418 L6.60302076,14.9502059 Z M16.5776098,19.5117155 L16.1998712,18.4052004 L34.5178917,12.1766709 L34.8956303,13.283186 L16.5776098,19.5117155 Z M27.3024124,23.6529814 L26.8086203,22.5929658 L43.1261706,15.0218505 L43.6199627,16.0818661 L27.3024124,23.6529814 Z M38.3796015,26.8524575 L37.8071347,25.8326152 L52.6185027,17.5515642 L53.1909696,18.5714065 L38.3796015,26.8524575 Z M48.7625346,29.2278988 L48.1359351,28.2402617 L62.6743939,19.0530442 L63.3009934,20.0406814 L48.7625346,29.2278988 Z M58.9498391,31.5061258 L58.2602123,30.5612458 L72.8686257,19.9415155 L73.5582525,20.8863955 L58.9498391,31.5061258 Z M68.5473059,33.6087328 L67.7980543,32.7102085 L82.8261951,20.2284412 L83.5754467,21.1269655 L68.5473059,33.6087328 Z M79.9291073,33.6360517 L79.1333505,32.7782756 L92.9322485,20.0278761 L93.7280054,20.8856523 L79.9291073,33.6360517 Z M90.3534089,33.5275634 L89.5226914,32.703462 L102.42168,19.7525222 L103.252398,20.5766237 L90.3534089,33.5275634 Z M100.518721,33.3426924 L99.6413243,32.5682729 L113.517374,16.9094643 L114.394771,17.6838837 L100.518721,33.3426924 Z M109.860879,33.3183651 L108.949112,32.5845556 L122.350949,15.9987052 L123.262716,16.7325147 L109.860879,33.3183651 Z M120.217234,31.8222048 L119.25843,31.1507587 L131.634055,13.5488925 L132.592858,14.2203385 L120.217234,31.8222048 Z M130.41043,29.2274296 L129.425179,28.5952678 L140.91241,10.7629813 L141.897661,11.3951431 L130.41043,29.2274296 Z M141.347019,25.6851373 L140.311536,25.1387604 L150.492085,5.92136664 L151.527567,6.46774353 L141.347019,25.6851373 Z M150.910216,22.7486878 L149.848526,22.2549437 L158.990293,2.67555832 L160.051983,3.16930238 L150.910216,22.7486878 Z M161.325729,18.4855776 L160.219595,18.1011067 L167.340279,-2.30401441 L168.446413,-1.91954349 L161.325729,18.4855776 Z" mask="url(#403-i)"/>
        </g>
        <g>
          <g transform="translate(186.177)">
            <path stroke="#8FA6B7" stroke-width="1.468" d="M17.7280045,10.606018 C16.1419217,8.83929298 15.572313,7.06353617 16.0191786,5.27874756 C16.6894769,2.60156464 18.9918099,1.56387237 20.6771766,1.78151241 C22.3625433,1.99915245 23.434416,2.65629177 24.5271543,3.33385204 C25.2556465,3.78555888 26.2953889,4.50868394 27.6463816,5.50322721" transform="matrix(-1 0 0 1 43.518 0)"/>
            <polygon fill="#FFF" stroke="#8FA6B7" stroke-width="1.355" points=".645 10.02 12.529 17.812 19.515 7.563 8.116 0" transform="matrix(-1 0 0 1 20.16 0)"/>
            <polygon fill="#DDE4E8" points="1.731 4.268 11.701 11.471 14.237 7.788 4.119 1.069" transform="matrix(-1 0 0 1 15.969 0)"/>
          </g>
          <g transform="matrix(-1 0 0 1 27.82 0)">
            <path stroke="#8FA6B7" stroke-width="1.468" d="M17.7280045,10.606018 C16.1419217,8.83929298 15.572313,7.06353617 16.0191786,5.27874756 C16.6894769,2.60156464 18.9918099,1.56387237 20.6771766,1.78151241 C22.3625433,1.99915245 23.434416,2.65629177 24.5271543,3.33385204 C25.2556465,3.78555888 26.2953889,4.50868394 27.6463816,5.50322721" transform="matrix(-1 0 0 1 43.518 0)"/>
            <polygon fill="#FFF" stroke="#8FA6B7" stroke-width="1.355" points=".645 10.02 12.529 17.812 19.515 7.563 8.116 0" transform="matrix(-1 0 0 1 20.16 0)"/>
            <polygon fill="#DDE4E8" points="1.731 4.268 11.701 11.471 14.237 7.788 4.119 1.069" transform="matrix(-1 0 0 1 15.969 0)"/>
          </g>
        </g>
      </g>
    </g>
    <g transform="translate(285.329 25.968)">
      <g stroke="#8FA6B7" stroke-linecap="round" stroke-linejoin="round" stroke-width="1.468">
        <path d="M.219084423 67.4945661C.940104604 67.4990397 1.5183631 67.4985298 1.9538599 67.4930363M4.09717614 67.3482316C6.2969109 67.0053702 8.29238304 66.2050869 10.0835926 64.9473818 12.8755108 62.9870249 14.940106 60.7724723 16.4951988 57.9066875M10.6286703 59.2263574C11.6963354 58.5937656 12.7756572 57.6007493 13.8666359 56.2473085M17.0782505 64.4036997C17.9500529 62.8564158 18.6220866 61.1967098 19.0943515 59.4245817"/>
        <ellipse cx="30.502" cy="34.872" rx="26.835" ry="26.863"/>
        <path d="M49.0032094 5.57006552L50.5235604 0M54.0035369 10.9128741L60.1437548 4.3381535M60.0039299 16.2203226L65.3474934 14.349277"/>
      </g>
      <g transform="translate(19.001 18.687)">
        <use fill="#EAEAEA" xlink:href="#403-j"/>
        <path stroke="#8FA6B7" stroke-width="1.468" d="M0.733870968,9.74388209 L0.733870968,19.3674009 C0.733870968,25.5899462 5.77824064,30.6343159 12.000786,30.6343159 C18.2233313,30.6343159 23.267701,25.5899462 23.267701,19.3674009 L23.267701,9.74388209 L0.733870968,9.74388209 Z"/>
        <ellipse cx="12.001" cy="18.02" fill="#8FA6B7" rx="2.667" ry="2.67"/>
        <rect width="2.667" height="6.007" x="10.667" y="18.02" fill="#8FA6B7" rx="1.333"/>
        <path fill="#8FA6B7" d="M19.6686527 10.6785317L24.001572 10.6785317 24.001572 12.0133482 19.6686527 12.0133482C19.3000533 12.0133482 19.0012445 11.7145393 19.0012445 11.3459399L19.0012445 11.3459399C19.0012445 10.9773405 19.3000533 10.6785317 19.6686527 10.6785317zM22.0021389 13.0144605L24.001572 13.0144605 24.001572 14.349277 22.0021389 14.349277C21.6335395 14.349277 21.3347306 14.0504681 21.3347306 13.6818687L21.3347306 13.6818687C21.3347306 13.3132694 21.6335395 13.0144605 22.0021389 13.0144605z"/>
        <path stroke="#8FA6B7" stroke-width="1.468" d="M2.000131,9.35784875 L4.65744728,9.35784875 C5.01275456,7.79155274 5.66139626,6.46684712 6.6033724,5.3837319 C8.01633661,3.75905908 9.68392321,2.7738955 12.2124013,2.7738955 C14.7408795,2.7738955 17.1294176,4.16621922 18.0817384,5.7512922 C18.7166189,6.80800753 19.1590356,8.01019304 19.4089886,9.35784875 L22.1217715,9.35784875 C21.8662642,7.2057878 21.1642141,5.36546978 20.0156212,3.83689471 C17.7267887,0.790861528 14.588107,0 12.0609512,0 C8.89887777,1.80092424e-16 6.3681313,1.34106868 4.36026713,3.83689471 C3.02169102,5.50077872 2.23497897,7.34109674 2.000131,9.35784875 Z"/>
      </g>
    </g>
  </g>
</svg>
