<svg xmlns="http://www.w3.org/2000/svg" xmlns:xlink="http://www.w3.org/1999/xlink" width="428" height="247" viewBox="0 0 428 247">
  <defs>
    <rect id="404-a" width="40.762" height="32.972" x="4.703" y="7.85"/>
    <rect id="404-b" width="50.168" height="9.421" rx="4.71"/>
    <rect id="404-c" width="40.762" height="32.972" x="4.703" y="7.85"/>
    <rect id="404-d" width="50.168" height="9.421" rx="4.71"/>
    <path id="404-e" d="M0,0 L246.139194,0 L246.139194,10.990676 C246.139194,17.0606587 241.218501,21.981352 235.148518,21.981352 L10.990676,21.981352 C4.92069325,21.981352 4.29607217e-15,17.0606587 3.55271368e-15,10.990676 L0,0 Z"/>
    <path id="404-f" d="M98.7692308,0 L148.937729,0 L148.937729,3.14019314 C148.937729,6.60875471 146.125904,9.42057942 142.657343,9.42057942 L105.049617,9.42057942 C101.581055,9.42057942 98.7692308,6.60875471 98.7692308,3.14019314 L98.7692308,0 Z"/>
    <path id="404-g" d="M6.28038628,0 L206.935731,8.8817842e-16 C210.404293,-1.51524937e-14 213.216117,2.81182471 213.216117,6.28038628 L213.216117,125.607726 L0,125.607726 L8.8817842e-16,6.28038628 C4.63402138e-16,2.81182471 2.81182471,1.52534284e-15 6.28038628,8.8817842e-16 Z"/>
    <path id="404-h" d="M14.1145521,12.5607726 L199.101565,12.5607726 C200.835846,12.5607726 202.241758,13.9666849 202.241758,15.7009657 L202.241758,125.607726 L10.974359,125.607726 L10.974359,15.7009657 C10.974359,13.9666849 12.3802713,12.5607726 14.1145521,12.5607726 Z"/>
    <path id="404-i" d="M25.0865801,23.5514486 L188.129537,23.5514486 C188.996678,23.5514486 189.699634,24.2544047 189.699634,25.1215451 L189.699634,125.607726 L23.5164835,125.607726 L23.5164835,25.1215451 C23.5164835,24.2544047 24.2194397,23.5514486 25.0865801,23.5514486 Z"/>
    <path id="404-j" d="M109.74359,1.41469663e-05 L109.74359,28.2617241 C109.736598,28.2617332 109.729605,28.2617383 109.722611,28.2617383 L14.1308691,28.2617383 C6.32660561,28.2617383 9.55746634e-16,21.9351327 0,14.1308691 C-9.55746634e-16,6.32660561 6.32660561,-3.42736888e-16 14.1308691,-1.77635684e-15 L109.722611,-1.77635684e-15 C109.729605,-1.77142956e-15 109.736598,5.08138837e-06 109.74359,1.52406748e-05 Z"/>
    <rect id="404-k" width="15.678" height="10.991" x="25.084"/>
    <rect id="404-l" width="6.271" height="7.85" x="29.788" y="9.421"/>
    <path id="404-m" d="M28.2314352,15.7009657 L57.995671,15.7009657 C62.331373,15.7009657 65.8461538,19.2157466 65.8461538,23.5514486 L65.8461538,70.6543457 L20.3809524,70.6543457 L20.3809524,23.5514486 C20.3809524,19.2157466 23.8957333,15.7009657 28.2314352,15.7009657 Z"/>
    <polygon id="404-n" points="20.381 23.551 65.846 23.551 65.846 44.482 20.381 58.094"/>
    <rect id="404-o" width="31.355" height="28.262" x="40.762" y="42.393"/>
    <path id="404-p" d="M68.988678,3.14019314 L72.1172161,3.14019314 L72.1172161,43.962704 L64.2783883,43.962704 L64.2783883,7.85048285 C64.2783883,5.24906168 66.3872568,3.14019314 68.988678,3.14019314 Z"/>
    <path id="404-q" d="M3.14019314,69.0842491 L72.1172161,69.0842491 L72.1172161,78.5048285 L3.14019314,78.5048285 C1.40591236,78.5048285 -6.44895001e-15,77.0989161 -6.66133815e-15,75.3646354 L0,72.2244422 C-2.12388141e-16,70.4901614 1.40591236,69.0842491 3.14019314,69.0842491 Z"/>
  </defs>
  <g fill="none" fill-rule="evenodd" transform="translate(0 2)">
    <g transform="translate(224.19 62.804)">
      <use fill="#FBFBFB" xlink:href="#404-a"/>
      <rect width="39.192" height="31.402" x="5.488" y="8.636" stroke="#8FA6B7" stroke-width="1.57"/>
      <use fill="#D0E1EA" xlink:href="#404-b"/>
      <rect width="48.598" height="7.85" x=".785" y=".785" stroke="#8FA6B7" stroke-width="1.57" rx="3.925"/>
      <path fill="#FF6262" fill-rule="nonzero" d="M26.6289393,21.9582423 L34.4677671,21.9582423 C34.9006936,21.9582423 35.2516499,22.3097204 35.2516499,22.7432906 C35.2516499,23.1768608 34.9006936,23.5283389 34.4677671,23.5283389 L26.6289393,23.5283389 L26.6289393,31.3788217 C26.6289393,31.8123919 26.277983,32.16387 25.8450565,32.16387 C25.41213,32.16387 25.0611737,31.8123919 25.0611737,31.3788217 L25.0611737,23.5283389 L17.2223459,23.5283389 C16.7894194,23.5283389 16.4384631,23.1768608 16.4384631,22.7432906 C16.4384631,22.3097204 16.7894194,21.9582423 17.2223459,21.9582423 L25.0611737,21.9582423 L25.0611737,14.1077595 C25.0611737,13.6741893 25.41213,13.3227112 25.8450565,13.3227112 C26.277983,13.3227112 26.6289393,13.6741893 26.6289393,14.1077595 L26.6289393,21.9582423 Z" transform="rotate(45 25.845 22.743)"/>
    </g>
    <g transform="translate(174.022 78.505)">
      <use fill="#FBFBFB" xlink:href="#404-c"/>
      <rect width="39.192" height="31.402" x="5.488" y="8.636" stroke="#8FA6B7" stroke-width="1.57"/>
      <g>
        <use fill="#D0E1EA" xlink:href="#404-d"/>
        <rect width="48.598" height="7.85" x=".785" y=".785" stroke="#8FA6B7" stroke-width="1.57" rx="3.925"/>
      </g>
    </g>
    <g stroke-width="1.57" transform="translate(47.033)">
      <polygon fill="#F3F3F3" stroke="#8FA5B5" points="1.067 186.754 19.198 119.329 64.901 119.329 82.384 186.754"/>
      <polygon fill="#D0E1EA" stroke="#8FA6B7" points="13.749 139.542 19.208 119.279 64.855 119.279 70.128 139.542"/>
      <polygon fill="#F3F3F3" stroke="#8FA6B7" points="9.507 119.2 75.654 119.2 42.581 1.549"/>
    </g>
    <g transform="translate(266.52 81.645)">
      <path stroke="#8FA6B7" stroke-dasharray="6.612 5.29" stroke-width="1.587" d="M153.641026,52.7914251 C150.184798,43.0019655 144.86055,34.0960282 138.097099,26.502946 C123.611359,10.2403296 102.523752,0 79.0472588,0 C66.3535851,0 54.3583106,2.99379559 43.7274008,8.314621 M10.1548245,39.9170096 C3.6891482,51.3942537 0,64.6478965 0,78.7642215 C0,92.3002828 3.3920905,105.043127 9.37163078,116.187146" transform="matrix(-1 0 0 1 153.641 0)"/>
      <path fill="#FF6262" fill-rule="nonzero" d="M132.741216,21.8125295 L136.598403,17.9553422 C136.934739,17.6190062 136.935144,17.0741026 136.599307,16.738266 C136.263471,16.4024293 135.718567,16.4028341 135.382231,16.7391701 L131.525044,20.5963575 L128.009919,17.0812322 C127.674082,16.7453955 127.129178,16.7458003 126.792842,17.0821363 C126.456506,17.4184723 126.456102,17.9633758 126.791938,18.2992125 L130.307063,21.8143378 L126.450375,25.6710258 C126.114039,26.0073618 126.113635,26.5522654 126.449471,26.888102 C126.785308,27.2239387 127.330212,27.2235339 127.666548,26.8871979 L131.523236,23.0305099 L135.710533,27.2178078 C136.04637,27.5536444 136.591274,27.5532396 136.92761,27.2169036 C137.263946,26.8805677 137.26435,26.3356641 136.928514,25.9998274 L132.741216,21.8125295 Z M131.692308,32.972028 C125.631337,32.972028 120.717949,28.0513347 120.717949,21.981352 C120.717949,15.9113692 125.631337,10.990676 131.692308,10.990676 C137.753279,10.990676 142.666667,15.9113692 142.666667,21.981352 C142.666667,28.0513347 137.753279,32.972028 131.692308,32.972028 Z"/>
    </g>
    <g transform="translate(0 143.944)">
      <path fill="#F2F2F2" d="M31.2486803,0.594909375 C33.8675731,0.00490774006 36.7625453,0.00490774006 39.933597,0.594909375 C43.1046486,1.18491101 46.4057765,2.44468343 49.8369807,4.37422664 C53.8905494,6.80109333 56.7901027,8.89323436 58.5356406,10.6506497 C60.2811785,12.4080651 61.9651333,14.6528479 63.5875049,17.384998 C66.6502274,16.0396184 70.3143728,15.2177211 74.5799412,14.9193062 C78.8455096,14.6208913 83.079506,14.9973756 87.2819305,16.0487593 C91.291109,17.078487 94.8909608,18.6674816 98.081486,20.8157431 C101.272011,22.9640046 103.726568,25.0560097 105.445156,27.0917584 C108.077934,26.2673046 110.162472,25.7245266 111.69877,25.4634243 C113.235067,25.2023219 114.747934,25.1337007 116.237371,25.2575608 L127.695487,34.1923375 L129.183631,78.342412 L0.358819783,81.1624936 L11.8150406,29.6007313 C14.0142316,20.3300263 16.2403106,14.0133325 18.4932778,10.6506497 C20.746245,7.28796695 24.9980458,3.9360535 31.2486803,0.594909375 Z"/>
      <path stroke="#8FA6B7" stroke-width="1.57" d="M18.575881 66.1113821C21.7701918 58.054992 25.5841146 51.9787573 30.0176494 47.8826779 36.6679517 41.7385589 44.578318 39.7084854 52.9669286 39.8130552 61.3555392 39.917625 66.9771652 41.9567353 72.8888528 46.6814578 76.8299778 49.8312728 80.6742762 54.6192789 84.4217478 61.0454761M64.9071565 76.194198C69.9437239 67.2970268 76.365428 62.3109029 84.1722688 61.2358262 91.9791097 60.1607495 99.7934349 63.3197336 107.615244 70.7127784M30.9023931.426667487C38.3306269-.0563953196 44.895964 1.47307208 50.5984045 5.0150697 56.300845 8.55706731 60.6726837 12.7442183 63.7139205 17.5765226 68.9957117 14.9564642 75.7983986 14.3014496 84.1219813 15.6114788 92.445564 16.921508 99.7469049 20.9262737 106.026004 27.6257761"/>
      <path stroke="#8FA6B7" stroke-width="1.57" d="M94.1844618,42.7523357 C95.3480108,36.1548964 98.5942932,31.4386446 103.923309,28.6035803 C109.252325,25.768516 117.407735,25.292851 128.389539,27.1765853"/>
    </g>
    <g stroke="#8FA6B7" stroke-width="1.57" transform="translate(7.839 222.384)">
      <path d="M0 1.33092101L420.161172 1.33092101M0 13.1308691L420.161172 13.1308691M35.5677656 2L35.5677656 13.1767041M76.5677656 2L76.5677656 13.1767041M360.567766 2L360.567766 13.1583403M399.567766 2L399.567766 13.1583403"/>
    </g>
    <g transform="translate(128.692 13.626)">
      <path fill="#F4F4F4" d="M0.760334366,86.2538554 L16.8009809,86.2538554 L40.6470724,33.6708248 C39.5851439,29.6948995 39.8335079,26.9411231 41.3921643,25.4094954 C43.7301489,23.1120539 46.4636538,21.8209818 49.6805224,21.9642341 C51.8251015,22.0597356 78.7535186,18.3766215 130.465774,10.9148918 C132.051159,10.3818253 133.841812,10.1336115 135.837733,10.1702505 C138.831614,10.2252089 141.240324,11.2590576 142.532297,13.4087421 C143.393612,14.8418651 144.465752,16.508336 145.748715,18.408155 L161.748368,40.0450988 L162.61599,35.7277107 L144.255829,3.97842035 L142.532297,2.20533607 L66.9437682,12.4073278 L34.2525269,16.9774345 L29.7652989,21.1634463 L0.760334366,86.2538554 Z"/>
      <path stroke="#8FA6B7" stroke-width="1.57" d="M30.5516515,91.3407265 L50.9281992,36.7048268 C48.4171128,36.3725688 46.5580923,36.0122518 45.3511374,35.6238759 C44.1441826,35.2355 42.6596964,34.5199379 40.8976789,33.4771895 L15.5421245,88.6575215"/>
      <polyline stroke="#8FA6B7" stroke-width="1.57" points="29.92 91.375 21.813 76.902 37.027 71.913 30.741 56.723 45.484 49.845 40.602 35.235"/>
      <path stroke="#8FA6B7" stroke-width="1.57" d="M52.9903774,33.8081835 L128.618237,22.1609571 L153.599111,47.3476898 C155.245691,48.5435819 156.860035,49.2079084 158.442144,49.3406694 C160.815307,49.5398107 161.721316,48.8051088 162.537232,48.0220546 C163.353148,47.2390005 163.852559,45.8081605 163.669946,44.2025316 C163.548204,43.1321123 163.131562,42.0327683 162.420019,40.9044996 L142.933819,14.4992822 L138.494209,12.0563531 L133.007458,10.5905915 L50.032967,22.1609571 L52.9903774,33.8081835 Z"/>
      <path fill="#F2F2F2" stroke="#8FA6B7" stroke-width="1.57" d="M48.587562 39.1305089C53.3497536 39.1305089 57.2102727 35.2642499 57.2102727 30.4949778 57.2102727 25.7257056 53.3497536 21.8594467 48.587562 21.8594467 43.8253705 21.8594467 39.9648514 25.7257056 39.9648514 30.4949778 39.9648514 35.2642499 43.8253705 39.1305089 48.587562 39.1305089zM31.518552 21.460288C33.6831846 21.460288 35.437966 19.7028975 35.437966 17.5350466 35.437966 15.3671956 33.6831846 13.6098051 31.518552 13.6098051 29.3539195 13.6098051 27.5991381 15.3671956 27.5991381 17.5350466 27.5991381 19.7028975 29.3539195 21.460288 31.518552 21.460288z"/>
      <polyline stroke="#8FA6B7" stroke-width="1.57" points="58.782 21.131 69.035 30.766 76.993 19.51 86.664 28.1 94.561 17.045 103.657 25.32 111.694 14.007 121.254 22.963 129.057 11.496"/>
      <ellipse cx="135.476" cy="18.561" fill="#F2F2F2" stroke="#8FA6B7" stroke-width="1.57" rx="8.623" ry="8.636"/>
      <polyline stroke="#8FA6B7" stroke-width="1.57" points="144.938 17.691 142.531 34.774 153.725 31.35 152.003 44.414 163.086 41.665"/>
      <path stroke="#8FA6B7" stroke-width="1.57" d="M34.3553114 19.3463203L41.6194423 25.1338535M29.2775472 22.4865135L.0647952088 88.5679342M35.1919525 16.6830921L143.617271 2.07525808M143.763954 3.64535465L139.395604 10.6281054"/>
      <polyline stroke="#8FA6B7" stroke-width="1.57" points="144.099 3.645 162.655 36.299 161.565 40.142"/>
      <path fill="#8FA6B7" d="M144.084113,4.95347467 C145.382892,4.95347467 146.435761,3.8990404 146.435761,2.59832981 C146.435761,1.29761922 145.382892,0.243184955 144.084113,0.243184955 C142.785333,0.243184955 141.732464,1.29761922 141.732464,2.59832981 C141.732464,3.8990404 142.785333,4.95347467 144.084113,4.95347467 Z"/>
      <path stroke="#8FA6B7" stroke-width="1.57" d="M159.776557,49.4620391 L159.776557,89.2864315"/>
      <ellipse cx="159.777" cy="72.73" fill="#F2F2F2" stroke="#8FA6B7" stroke-width="1.57" rx="6.271" ry="6.28"/>
    </g>
    <g transform="translate(89.363 98.916)">
      <g transform="translate(0 124.038)">
        <use fill="#FDFEFF" xlink:href="#404-e"/>
        <path stroke="#8FA6B7" stroke-width="1.57" d="M0.785048285,0.785048285 L0.785048285,10.990676 C0.785048285,16.6270885 5.35426345,21.1963037 10.990676,21.1963037 L235.148518,21.1963037 C240.784931,21.1963037 245.354146,16.6270885 245.354146,10.990676 L245.354146,0.785048285 L0.785048285,0.785048285 Z"/>
        <path fill="#D0E1EA" d="M1.62818628,1.56266966 L1.72483128,5.6711319 C1.86530641,11.642851 6.74962484,16.4090569 12.7229932,16.4033363 L233.30157,16.1920922 C239.14475,16.1864963 243.962061,11.6097871 244.266767,5.77455473 L244.486704,1.56266966 L244.570729,1.56266966 L244.873128,9.4307602 C245.106247,15.4962648 240.378165,20.6023082 234.31266,20.8354274 C234.172025,20.8408325 234.031299,20.8435358 233.890561,20.8435358 L11.5531236,20.8435358 C6.01704015,20.8435358 1.52915777,16.3556535 1.52915777,10.81957 C1.52915777,10.5111749 1.54338979,10.202944 1.57180842,9.89586105 L1.57180842,1.56266966 L1.62818628,1.56266966 Z"/>
        <g>
          <use fill="#DEEBF2" fill-opacity=".324" xlink:href="#404-f"/>
          <path stroke="#8FA6B7" stroke-width="1.57" d="M99.5542791,0.785048285 L99.5542791,3.14019314 C99.5542791,6.17518451 102.014626,8.63553114 105.049617,8.63553114 L142.657343,8.63553114 C145.692334,8.63553114 148.152681,6.17518451 148.152681,3.14019314 L148.152681,0.785048285 L99.5542791,0.785048285 Z"/>
        </g>
      </g>
      <g transform="translate(17.245)">
        <use fill="#FBFBFB" xlink:href="#404-g"/>
        <path stroke="#8FA6B7" stroke-width="1.884" d="M0.942057942,124.665668 L212.274059,124.665668 L212.274059,6.28038628 C212.274059,3.33210895 209.884008,0.942057942 206.935731,0.942057942 L6.28038628,0.942057942 C3.33210895,0.942057942 0.942057942,3.33210895 0.942057942,6.28038628 L0.942057942,124.665668 Z"/>
        <use fill="#EAEAEA" xlink:href="#404-h"/>
        <path stroke="#8FA6B7" stroke-width="1.884" d="M11.9164169,124.665668 L201.2997,124.665668 L201.2997,15.7009657 C201.2997,14.4869692 200.315562,13.5028305 199.101565,13.5028305 L14.1145521,13.5028305 C12.9005556,13.5028305 11.9164169,14.4869692 11.9164169,15.7009657 L11.9164169,124.665668 Z"/>
        <g>
          <use fill="#FFF" xlink:href="#404-i"/>
          <path stroke="#8FA6B7" stroke-width="1.884" d="M24.4585415,124.665668 L188.757576,124.665668 L188.757576,25.1215451 C188.757576,24.774689 188.476393,24.4935065 188.129537,24.4935065 L25.0865801,24.4935065 C24.7397239,24.4935065 24.4585415,24.774689 24.4585415,25.1215451 L24.4585415,124.665668 Z"/>
        </g>
      </g>
      <g transform="translate(50.168 31.402)">
        <rect width="145.802" height="45.533" y="26.692" fill="#F3F3F3"/>
        <rect width="31.355" height="3.14" x="23.516" y="12.561" fill="#DDE7FF" rx="1.57"/>
        <rect width="48.601" height="4.71" x="23.516" y="3.14" fill="#DDE7FF" rx="2.355"/>
        <rect width="18.813" height="18.841" fill="#FF6262" rx="3.14"/>
      </g>
    </g>
    <g transform="matrix(-1 0 0 1 428 196.262)">
      <use fill="#FFF" xlink:href="#404-j"/>
      <path stroke="#8FA6B7" stroke-width="1.57" d="M108.958541,0.785048285 L14.1308691,0.785048285 C6.7601758,0.785048285 0.785048285,6.7601758 0.785048285,14.1308691 C0.785048285,21.5015625 6.7601758,27.47669 14.1308691,27.47669 L108.958541,27.47669 L108.958541,0.785048285 Z"/>
      <rect width="92.498" height="15.701" x="15.678" y="6.28" fill="#EAEAEA"/>
      <ellipse cx="15.678" cy="14.131" fill="#FFF" stroke="#8FA6B7" stroke-width="1.57" rx="7.839" ry="7.85"/>
      <ellipse cx="34.491" cy="14.131" fill="#FFF" stroke="#8FA6B7" stroke-width="1.57" rx="7.839" ry="7.85"/>
      <ellipse cx="53.304" cy="14.131" fill="#FFF" stroke="#8FA6B7" stroke-width="1.57" rx="7.839" ry="7.85"/>
      <ellipse cx="72.117" cy="14.131" fill="#FFF" stroke="#8FA6B7" stroke-width="1.57" rx="7.839" ry="7.85"/>
      <ellipse cx="90.93" cy="14.131" fill="#FFF" stroke="#8FA6B7" stroke-width="1.57" rx="7.839" ry="7.85"/>
      <path stroke="#8FA6B7" stroke-linecap="square" stroke-width="1.57" d="M15.6776557 6.28038628L108.896975 6.28038628M15.6776557 21.981352L108.871364 21.981352"/>
    </g>
    <g transform="matrix(-1 0 0 1 390.374 119.327)">
      <use fill="#EAEAEA" xlink:href="#404-k"/>
      <rect width="14.108" height="9.421" x="25.869" y=".785" stroke="#8FA6B7" stroke-width="1.57"/>
      <use fill="#EAEAEA" xlink:href="#404-l"/>
      <rect width="4.701" height="6.28" x="30.573" y="10.206" stroke="#8FA6B7" stroke-width="1.57"/>
      <use fill="#FFF" xlink:href="#404-m"/>
      <path stroke="#8FA6B7" stroke-width="1.57" d="M21.1660007,69.8692974 L65.0611056,69.8692974 L65.0611056,23.5514486 C65.0611056,19.6493168 61.8978028,16.486014 57.995671,16.486014 L28.2314352,16.486014 C24.3293035,16.486014 21.1660007,19.6493168 21.1660007,23.5514486 L21.1660007,69.8692974 Z"/>
      <use fill="#D0E1EA" xlink:href="#404-n"/>
      <path stroke="#8FA6B7" stroke-width="1.57" d="M21.1660007,24.3364968 L21.1660007,57.0390589 L65.0611056,43.8972324 L65.0611056,24.3364968 L21.1660007,24.3364968 Z"/>
      <g>
        <use fill="#FFF" xlink:href="#404-o"/>
        <rect width="29.785" height="26.692" x="41.547" y="43.178" stroke="#8FA6B7" stroke-width="1.57"/>
      </g>
      <g>
        <use fill="#FFF" xlink:href="#404-p"/>
        <path stroke="#8FA6B7" stroke-width="1.57" d="M65.0634366,43.1776557 L71.3321678,43.1776557 L71.3321678,3.92524143 L68.988678,3.92524143 C66.820827,3.92524143 65.0634366,5.68263187 65.0634366,7.85048285 L65.0634366,43.1776557 Z"/>
      </g>
      <g>
        <use fill="#EAEAEA" xlink:href="#404-q"/>
        <path stroke="#8FA6B7" stroke-width="1.57" d="M71.3321678,77.7197802 L71.3321678,69.8692974 L3.14019314,69.8692974 C1.83948255,69.8692974 0.785048285,70.9237316 0.785048285,72.2244422 L0.785048285,75.3646354 C0.785048285,76.665346 1.83948255,77.7197802 3.14019314,77.7197802 L71.3321678,77.7197802 Z"/>
      </g>
    </g>
  </g>
</svg>
