<svg xmlns="http://www.w3.org/2000/svg" xmlns:xlink="http://www.w3.org/1999/xlink" width="431" height="268" viewBox="0 0 431 268">
  <defs>
    <rect id="500-a" width="9.293" height="24.469" x="26.189" y="75.938"/>
    <rect id="500-b" width="11.827" height="29.531" x="35.481" y="102.094"/>
    <rect id="500-c" width="8.448" height="21.938" x="26.189" y="76.781"/>
    <rect id="500-d" width="6.824" height="16.829" x="20.275" y="58.219"/>
    <ellipse id="500-e" cx="97.098" cy="48.673" rx="93.673" ry="27.728"/>
    <linearGradient id="500-g" x1="50%" x2="50%" y1="0%" y2="100%">
      <stop offset="0%" stop-color="#FCFCFC"/>
      <stop offset="100%" stop-color="#F7F7F7"/>
    </linearGradient>
  </defs>
  <g fill="none" fill-rule="evenodd" transform="translate(1 -2)">
    <g transform="translate(261.041 166.375)">
      <use fill="#D6E0E7" xlink:href="#500-a"/>
      <rect width="8.027" height="23.203" x="26.821" y="76.57" stroke="#91A8B8" stroke-width="1.266"/>
      <path fill="#F0F3F5" stroke="#91A8B8" stroke-width="1.266" d="M2.4233387,81.84375 L58.1353769,81.84375 C59.2782597,81.7526748 60.0851585,81.3689983 60.5560733,80.6927205 C61.0269881,80.0164427 60.879781,79.1059892 60.1144521,77.9613601 L32.1528205,29.0691608 C31.3935923,28.2522877 30.4367016,27.8438175 29.2821483,27.84375 C28.127595,27.8436825 27.254479,28.2521528 26.6628005,29.0691608 L0.787189989,77.9613601 C0.162556218,79.0298898 -0.0903432643,79.9403433 0.0284915434,80.6927205 C0.147326351,81.4450977 0.945608738,81.8287742 2.4233387,81.84375 Z"/>
      <path fill="#F0F3F5" stroke="#91A8B8" stroke-width="1.266" d="M2.4233387,54 L58.1353769,54 C59.2782597,53.9089248 60.0851585,53.5252483 60.5560733,52.8489705 C61.0269881,52.1726927 60.879781,51.2622392 60.1144521,50.1176101 L32.1528205,1.22541082 C31.3935923,0.408537743 30.4367016,6.74690465e-05 29.2821483,0 C28.127595,-6.74690465e-05 27.254479,0.408402804 26.6628005,1.22541082 L0.787189989,50.1176101 C0.162556218,51.1861398 -0.0903432643,52.0965933 0.0284915434,52.8489705 C0.147326351,53.6013477 0.945608738,53.9850242 2.4233387,54 Z"/>
    </g>
    <g transform="translate(0 135.156)">
      <g transform="translate(11.827)">
        <use fill="#D6E0E7" xlink:href="#500-b"/>
        <rect width="10.561" height="28.266" x="36.114" y="102.727" stroke="#91A8B8" stroke-width="1.266"/>
        <path fill="#F0F3F5" stroke="#91A8B8" stroke-width="1.266" d="M3.33209072,108.84375 L79.9361432,108.84375 C81.5076071,108.660176 82.6170929,107.886829 83.2646008,106.523706 C83.9121086,105.160584 83.7096989,103.325451 82.6573717,101.018308 L44.2101282,2.46996868 C43.1661895,0.823458887 41.8504647,0.000135992297 40.2629539,0 C38.6754431,-0.000135992297 37.4749087,0.823186903 36.6613506,2.46996868 L1.08238623,101.018308 C0.223514799,103.172063 -0.124221988,105.007196 0.0391758721,106.523706 C0.202573733,108.040216 1.30021201,108.813564 3.33209072,108.84375 Z"/>
      </g>
      <g transform="translate(64.204 32.906)">
        <use fill="#D6E0E7" xlink:href="#500-c"/>
        <rect width="7.182" height="20.672" x="26.821" y="77.414" stroke="#91A8B8" stroke-width="1.266"/>
        <path fill="#F0F3F5" stroke="#91A8B8" stroke-width="1.266" d="M2.49065367,81.84375 L59.7502485,81.84375 C60.924878,81.7057141 61.7541907,81.1242044 62.2381864,80.0992209 C62.7221822,79.0742374 62.5708861,77.6943313 61.784298,75.9595028 L33.0459544,1.85726327 C32.2656366,0.619190016 31.2821655,0.000102257774 30.0955413,0 C28.908917,-0.000102257774 28.0115479,0.6189855 27.4034338,1.85726327 L0.809056377,75.9595028 C0.167071668,77.5789932 -0.0928527994,78.9588992 0.0292829751,80.0992209 C0.15141875,81.2395426 0.971875647,81.8210523 2.49065367,81.84375 Z"/>
      </g>
      <g transform="translate(0 55.688)">
        <use fill="#D6E0E7" xlink:href="#500-d"/>
        <rect width="5.558" height="15.564" x="20.908" y="58.852" stroke="#91A8B8" stroke-width="1.266"/>
        <path fill="#F0F3F5" stroke="#9EB0BD" stroke-width="1.266" d="M1.85116151,61.873899 L44.4089685,61.873899 C45.2820039,61.7695438 45.8983849,61.3299223 46.2581115,60.5550345 C46.6178381,59.7801467 46.5053883,58.7369373 45.920762,57.4254064 L24.5611823,1.40409158 C23.9812164,0.468107834 23.2502582,7.73069068e-05 22.3683077,0 C21.4863573,-7.73069068e-05 20.8193937,0.46795322 20.367417,1.40409158 L0.601325686,57.4254064 C0.124174888,58.6497416 -0.0690122158,59.692951 0.0217643734,60.5550345 C0.112540963,61.417118 0.722340008,61.8567395 1.85116151,61.873899 Z"/>
      </g>
    </g>
    <g transform="rotate(2 39.373 3890.343)">
      <g transform="translate(73.497)">
        <path fill="#F6F6F6" stroke="#91A8B8" stroke-width="1.266" d="M0.0240323609,34.9491001 C0.725844698,15.528647 16.710289,0 36.3261297,0 C56.3884971,0 72.6522593,16.2436689 72.6522593,36.28125 C72.6522593,40.337859 71.9856725,44.2389707 70.7559299,47.8812817 L0.0240323609,34.9491001 Z"/>
        <path stroke="#91A8B8" stroke-linecap="round" stroke-linejoin="round" stroke-width="1.266" d="M44.8378401,7.04855714 C58.6779329,10.4254346 66.3803679,20.476415 67.9451448,37.2014983"/>
        <path fill="#FFF" stroke="#91A8B8" stroke-width="1.266" d="M20.7392563,39.2148241 L23.9391799,24.2651727 C25.1581281,20.9128898 26.8759567,18.553623 29.0926658,17.1873724 C32.4177295,15.1379966 35.9010562,14.4665193 40.3410048,14.9699303 C44.7809534,15.4733412 48.3386383,18.1345928 50.3875389,21.4051179 C51.7534726,23.585468 52.3349949,26.0920702 52.1321056,28.9249245 L49.5904345,44.5010723 L20.7392563,39.2148241 Z"/>
        <path fill="#91A8B8" fill-rule="nonzero" d="M41.4864194,10.9663161 L40.913092,15.0879996 L40.0763349,14.9718939 L40.6567028,10.799596 C40.093477,10.5259351 39.7053045,9.94886782 39.7053045,9.28125 C39.7053045,8.34926948 40.4617586,7.59375 41.3948919,7.59375 C42.3280253,7.59375 43.0844794,8.34926948 43.0844794,9.28125 C43.0844794,10.1825611 42.3769926,10.9188339 41.4864194,10.9663161 Z"/>
        <path fill="#91A8B8" d="M31.4465235,25.545964 C31.4521114,25.7843623 31.67099,26.0542218 32.082902,26.3445435 C33.8214844,27.5699221 35.8961023,28.4239424 38.6960588,28.8011962 C43.6767331,29.4722703 45.7288025,28.7930323 44.9731237,27.955448 C44.2174449,27.1178637 42.5794197,25.7122533 38.7906457,25.0692362 C36.4800467,24.6770897 33.6609138,24.7098756 32.082902,25.0692362 C31.6961334,25.1573151 31.4409356,25.3075657 31.4465235,25.545964 Z"/>
      </g>
      <g transform="translate(0 21.938)">
        <ellipse cx="100.475" cy="37.03" fill="#F5F5F5" stroke="#91A8B8" stroke-width="1.266" rx="54.923" ry="27.728" transform="rotate(10 100.475 37.03)"/>
        <ellipse cx="100.473" cy="43.486" fill="#F0F3F5" stroke="#8FA6B7" stroke-width="1.266" rx="81.406" ry="27.728" transform="rotate(10 100.473 43.486)"/>
        <mask id="500-f" fill="#fff">
          <use xlink:href="#500-e"/>
        </mask>
        <use fill="#FFF" stroke="#91A8B8" stroke-width="1.266" transform="rotate(10 97.098 48.673)" xlink:href="#500-e"/>
        <path fill="#F6F6F6" d="M34.7283105,58.8388086 C38.3549255,60.7714478 43.3050358,62.8420631 49.5786413,65.0506545 C55.8522468,67.259246 60.6048478,68.8814424 63.8364443,69.9172439 C74.1266037,72.4059601 80.9025814,74.048746 84.1643775,74.8456016 C89.0570716,76.0408852 96.9601353,77.8003067 108.620641,78.7657424 C120.281147,79.7311782 128.364114,80.4997249 131.664605,80.7455796 C134.965096,80.9914343 144.735061,80.7455796 148.799709,80.7455796 C152.864358,80.7455796 153.198152,79.8071511 152.54486,77.6219843 C151.891568,75.4368175 151.139938,71.7673472 144.799312,67.8334631 C138.458687,63.899579 132.068787,60.9787248 130.368224,60.2935012 C128.667661,59.6082776 124.143475,57.8683185 113.935295,54.9683171 C103.727114,52.0683157 91.6920558,50.5581546 89.2181489,50.0893833 C86.7442421,49.620612 68.1890015,48.3832057 59.1709023,49.406245 C50.1528032,50.4292842 43.5528649,51.68942 39.308243,54.2397196 C36.478495,55.9399194 34.9518508,57.4729491 34.7283105,58.8388086 Z" mask="url(#500-f)"/>
        <path fill="#F0F3F5" stroke="#91A8B8" stroke-width="1.266" d="M34.020246,58.9707089 C35.5541296,55.9913298 39.119394,53.6154804 44.7160391,51.8431607 C53.1110067,49.1846811 63.2939585,48.5962452 68.8829505,48.6900538 C74.4719425,48.7838624 79.6607585,48.7874632 88.5944173,49.7916893 C97.5280761,50.7959153 104.223482,52.1628681 109.976035,53.661911 C115.728589,55.1609538 127.678463,57.6436944 140.818429,65.0667656 C149.578406,70.0154798 153.375263,75.0167244 152.209,80.0704994 C146.546453,80.4457539 139.111849,80.4457539 129.905188,80.0704994 C116.095197,79.5076176 102.795508,77.9790464 90.3769325,75.6091849 C77.9583574,73.2393233 71.4316937,72.0439764 57.6258221,67.8640324 C48.4219077,65.0774031 40.5533824,62.1129619 34.020246,58.9707089 Z"/>
      </g>
      <g fill="#EAEAEA" stroke="#91A8B8" stroke-width="1.458" transform="translate(21.12 46.406)">
        <ellipse cx="10.273" cy="10.098" rx="8.748" ry="5.104" transform="rotate(-10 10.273 10.098)"/>
        <ellipse cx="46.105" cy="5.91" rx="8.748" ry="5.104" transform="rotate(5 46.105 5.91)"/>
        <ellipse cx="83.778" cy="9.642" rx="8.748" ry="5.104" transform="rotate(5 83.778 9.642)"/>
        <ellipse cx="120.183" cy="20.961" rx="8.748" ry="5.104" transform="rotate(18 120.183 20.961)"/>
        <ellipse cx="149.582" cy="37.508" rx="8.748" ry="5.104" transform="rotate(31 149.582 37.508)"/>
      </g>
    </g>
    <g stroke="#91A8B8" stroke-width="1.266" transform="translate(119.116 2.688)">
      <g transform="translate(185.01 34.594)">
        <path d="M.733494648 19.3283057L43.7055093 19.3283057M97.151277 19.40625L125.434074 19.40625M24.8520403 15.1370455L32.6407899 15.1370455C32.3022826 12.2661058 33.0955011 10.3890181 35.0204455 9.50578238 36.94539 8.62254663 39.5048892 9.24618893 42.6989431 11.3767093 43.6266672 5.20950831 47.053469 1.70494504 52.9793486.8630195 58.9052282.0210939559 63.469557 3.06207238 66.672335 9.98595478 68.1859228 7.35034337 70.1964298 6.0400275 72.7038561 6.05500717 75.2112824 6.06998684 77.1622414 7.51785139 78.5567331 10.3986008 81.1252885 8.51581516 83.184814 8.1282162 84.7353097 9.23580392 86.2858054 10.3433916 86.690453 12.3104722 85.9492525 15.1370455L101.095295 15.1370455M104.578484 15.1370455L114.183157 15.1370455"/>
      </g>
      <path d="M20.1118173 12.743502L.203019194 12.743502C.654818489 10.732089 1.57064808 9.52534492 2.95050798 9.12326966 4.33036788 8.72119439 5.79324817 8.92223202 7.33914884 9.72638255 7.37564731 7.67748536 8.40986129 6.31587027 10.4417908 5.64153728 12.4737203 4.96720429 14.7881313 5.38673462 17.3850237 6.90012828 18.1024098 5.1389605 19.0964486 3.6904113 20.3671399 2.55448067 22.2731769.850584732 24.9887801.297740556 27.5481599.921354994 30.1075397 1.54496943 31.8847165 3.42808183 32.6721345 6.10264524 33.1970799 7.88568752 33.0606854 10.0993064 32.2629512 12.743502M28.417379 12.6290886L41.9461996 12.6290886M16.1188083 17.2813295L52.4638965 17.2813295M56.1895493 17.2813295L62.1794167 17.2813295"/>
    </g>
    <g stroke="#91A8B8" stroke-width="1.266" opacity=".952" transform="rotate(1 -4858.115 3855.177)">
      <path fill="#F7F7F7" d="M62.6893721,181.826034 L146.826999,0.709579565 C143.130296,0.579108371 139.663015,0.744762665 136.425154,1.20654245 C133.244911,1.66010497 131.806566,2.33330807 131.031403,3.08936032 C130.514628,3.59339515 130.023092,4.18004972 129.556794,4.84932401 L0.387050445,181.826034"/>
      <path fill="#F9F9F9" d="M101.364731,181.681912 L155.497143,1.39604859 C153.659226,1.17063861 152.05045,1.01352468 150.670815,0.924706813 C149.29118,0.835888945 147.988035,0.768186767 146.761381,0.721600277 L62.7261694,181.681912"/>
      <path fill="#F8F8F8" d="M125.726638,181.545827 L164.487037,2.76892967 C162.691952,2.45358025 161.152838,2.18835353 159.869694,1.97324952 C158.586549,1.75814551 157.131684,1.56404701 155.505097,1.39095402 L101.318333,181.545827"/>
      <path fill="#F9F9F9" d="M162.596999,181.109917 L175.270094,5.37954083 C174.453018,5.06631386 172.778848,4.6103914 170.247583,4.01177345 C167.716319,3.4131555 165.766535,3.00010121 164.398231,2.77261058 L125.591736,181.109917"/>
      <path fill="url(#500-g)" d="M180.086727,180.613998 L188.867039,14.8365965 C188.908184,13.838828 188.801525,12.990484 188.547062,12.2915645 C188.165367,11.2431852 186.009382,9.64283181 182.655606,8.11636216 C180.419756,7.09871573 177.966658,6.18302067 175.296311,5.36927699 L162.858868,180.613998"/>
    </g>
    <g transform="translate(182 133)">
      <path fill="#F0F3F5" stroke="#91A8B8" stroke-width=".844" d="M0.0875238528,9.79075924 C0.241654024,14.3464042 0.536158174,18.4118406 0.971036302,21.9870685 C1.40591443,25.5622964 2.02942721,29.0124293 2.84157466,32.3374672 L20.1406344,31.5304221 C19.0413549,27.5284441 18.267892,23.6958908 17.8202457,20.0327624 C17.3725994,16.369634 17.0741432,12.7344395 16.9248771,9.12717872 L0.0875238528,9.79075924 Z"/>
      <path stroke="#91A8B8" stroke-width=".844" d="M3.54681339 14.9141661C3.9407847 13.5983967 4.89129316 12.8974012 6.39833879 12.8111797M10.6728293 12.7452959C12.4078199 12.1877386 13.6195717 12.4667838 14.3080848 13.5824313"/>
      <ellipse cx="5.914" cy="16.031" fill="#91A8B8" rx="1" ry="1"/>
      <ellipse cx="12.672" cy="15.188" fill="#91A8B8" rx="1" ry="1"/>
      <path fill="#FF4646" stroke="#91A8B8" stroke-width=".844" d="M7.20134175,20.8034746 L12.2177825,20.8034746 C12.1546161,19.9662823 11.9604988,19.2904148 11.6354304,18.7758723 C11.1478279,18.0040586 10.2118975,17.6411129 9.38659367,17.7122827 C8.56128984,17.7834525 7.92763213,18.2956745 7.59831715,18.914878 C7.37877382,19.3276804 7.24644869,19.9572126 7.20134175,20.8034746 Z"/>
      <path stroke="#91A8B8" stroke-width=".844" d="M5.07646215 23.654901L5.3781104 26.4201234M7.65426647 24.164314L16.0995055 23.7412074M8.01724758 26.5802117L16.208035 26.1165706M4.4772697 29.1398016L16.4866549 28.3744295"/>
      <path stroke="#91A8B8" stroke-linecap="round" stroke-linejoin="round" stroke-width=".844" d="M15.5557964 5.98160194L15.5557964.745794353M17.6289334 6.93117152L21.0778646 3.19014715M19.1180743 9.13414691L23.5356637 9.13414691"/>
      <path fill="#FFF" d="M7.95867961,19.1276425 C8.4065172,19.3511566 8.97416919,19.4680328 9.66163558,19.4782712 C10.349102,19.4885095 10.916754,19.3716333 11.3645915,19.1276425 C11.211855,18.8568518 10.9879362,18.6212722 10.6928352,18.4209036 C10.3977341,18.2205349 10.0192733,18.1206345 9.55745279,18.1212024 C9.0828018,18.1513283 8.72877271,18.2701053 8.4953655,18.4775335 C8.2619583,18.6849617 8.083063,18.9016647 7.95867961,19.1276425 Z"/>
    </g>
    <g transform="rotate(69 -21.227 252.766)">
      <polygon fill="#FFF" points=".243 21.066 12.719 14.418 24.14 21.176 12.214 27.714"/>
      <path fill="#91A8B8" fill-rule="nonzero" d="M12.214283,27.5167175 L23.7907201,21.1703342 L12.7143354,14.6161078 L0.604823755,21.0691236 L12.214283,27.5167175 Z M12.723403,14.2189415 L24.3032819,21.0711005 L24.3036725,21.2840382 L12.2131745,27.9122376 L0.0883960227,21.1784488 L0.0883960227,20.9450326 L12.723403,14.2189415 Z"/>
      <polygon fill="#DEE5EB" points="12.212 27.714 12.212 29.978 .262 23.317 .262 21.062"/>
      <path fill="#91A8B8" fill-rule="nonzero" d="M0.436915676,21.357604 L0.436915676,23.2161771 L12.0371579,29.6824377 L12.0371579,27.8144428 L0.436915676,21.357604 Z M12.0724054,30.0985739 L0.0869297094,23.4175747 L0.0869297094,21.0750175 L0.175668779,21.0009453 L0.355967228,20.9161985 L12.3871439,27.6129007 L12.3871439,30.0722365 L12.0724054,30.0985739 Z"/>
      <polygon fill="#F0F3F5" points="24.129 27.692 24.129 29.957 12.234 23.456 12.234 21.201" transform="matrix(-1 0 0 1 36.364 0)"/>
      <path fill="#91A8B8" fill-rule="nonzero" d="M12.4094024,21.4934428 L12.4094024,23.3538764 L23.954262,29.6635965 L23.954262,27.7937424 L12.4094024,21.4934428 Z M24.1563765,30.1705199 L24.1101958,30.1434483 L12.0594165,23.5572231 L12.0594165,21.0768755 L12.1272339,21.0419886 L12.2137118,20.9921604 L24.304248,27.5902484 L24.304248,30.0910857 L24.1563765,30.1705199 Z" transform="matrix(-1 0 0 1 36.364 0)"/>
      <path fill="#F0F3F5" stroke="#91A8B8" stroke-width=".519" d="M4.89850467,21.2615318 C4.95379797,21.6867507 5.11536122,21.8643767 5.51737868,22.1597921 C6.5997869,22.9551804 8.75848338,23.5025914 12.0900014,23.618177 C15.685384,23.7429173 18.1469784,22.9938594 19.5959043,21.8878227 C19.7511183,21.7693402 19.9040437,21.5162217 19.9388513,21.1792109 C19.9620564,20.954537 19.8994787,20.5633356 19.7511183,20.0056067 L13.9643298,0.786526437 L10.8717937,0.786526437 L4.99515683,20.2502193 C4.89385985,20.6409484 4.86164246,20.9780526 4.89850467,21.2615318 Z"/>
      <path d="M9.1128524,6.61902831 C9.82712869,7.22520102 10.9405693,7.513538 12.4531743,7.48403925 C13.9657792,7.4545405 15.0792199,7.16620352 15.7934962,6.61902831"/>
      <path fill="#FFF" d="M10.6500655,23.3716451 L12.1529186,1.18378578 L12.9065341,1.18378578 L16.4020206,23.1027236 C15.5882292,23.2910566 14.7060504,23.4046327 13.7554843,23.4434519 C12.8049182,23.4822711 11.7697786,23.4583355 10.6500655,23.3716451 Z"/>
      <ellipse cx="12.366" cy=".805" fill="#F0F3F5" stroke="#91A8B8" stroke-width=".519" rx="1.633" ry="1"/>
      <path stroke="#91A8B8" stroke-width=".519" d="M7.49706524 11.8942235C8.75360162 12.7829447 10.4538424 13.2147235 12.5977874 13.1895599 14.7417325 13.1643963 16.3059349 12.7326175 17.2903946 11.8942235M5.94660379 16.9262633C7.3574799 17.9579112 9.43328658 18.4952242 12.1740238 18.5382022 14.9147611 18.5811802 17.1470536 18.0438672 18.8709013 16.9262633M9.03708097 6.71384436C9.87286277 7.21390753 11.0204871 7.4697538 12.4799541 7.48138317 13.939421 7.49301255 15.0224456 7.23716628 15.7290279 6.71384436"/>
    </g>
    <g transform="rotate(12 -797.044 745.234)">
      <polygon fill="#FFF" points=".401 35.11 21.052 24.029 39.957 35.293 20.216 46.191"/>
      <path fill="#91A8B8" fill-rule="nonzero" d="M20.2167443,45.8611958 L39.3777436,35.2838904 L21.0444172,24.3601796 L1.00108759,35.115206 L20.2167443,45.8611958 Z M21.0594256,23.6982359 L40.2261218,35.1185008 L40.2267682,35.473397 L20.2149096,46.5203961 L0.146310658,35.2974146 L0.146310658,34.9083877 L21.0594256,23.6982359 Z"/>
      <polygon fill="#DEE5EB" points="20.213 46.189 20.213 49.964 .434 38.861 .434 35.103"/>
      <path fill="#91A8B8" fill-rule="nonzero" d="M0.723170774,35.5960067 L0.723170775,38.6936285 L19.9235717,49.4707294 L19.9235717,46.3574046 L0.723170774,35.5960067 Z M19.9819124,50.1642898 L0.143883657,39.0292912 L0.143883657,35.1250291 L0.290762117,35.0015755 L0.589187135,34.8603309 L20.5028589,46.0215011 L20.5028589,50.1203941 L19.9819124,50.1642898 Z"/>
      <polygon fill="#F0F3F5" points="39.938 46.153 39.938 49.928 20.25 39.093 20.25 35.335" transform="matrix(-1 0 0 1 60.188 0)"/>
      <path fill="#91A8B8" fill-rule="nonzero" d="M20.5397006,35.8224047 L20.5397006,38.9231273 L39.6484337,49.4393275 L39.6484337,46.322904 L20.5397006,35.8224047 Z M39.982968,50.2841998 L39.906531,50.2390805 L19.9604135,39.2620385 L19.9604135,35.1281258 L20.0726631,35.0699811 L20.2157988,34.986934 L40.2277208,45.9837474 L40.2277208,50.1518096 L39.982968,50.2841998 Z" transform="matrix(-1 0 0 1 60.188 0)"/>
      <path fill="#F0F3F5" stroke="#91A8B8" stroke-width=".575" d="M8.10786979,35.4358864 C8.19938975,36.1445845 8.46680477,36.4406279 9.13221298,36.9329868 C10.9237852,38.258634 14.4968001,39.1709856 20.0110368,39.3636283 C25.9620149,39.5715288 30.036378,38.323099 32.4346001,36.4797045 C32.6915061,36.2822336 32.9446241,35.8603695 33.0022367,35.2986848 C33.0406451,34.9242283 32.9370682,34.272226 32.6915061,33.3426779 L23.1133734,1.3108774 L17.994693,1.3108774 L8.26784578,33.7503655 C8.10018181,34.4015807 8.04685649,34.9634209 8.10786979,35.4358864 Z"/>
      <path d="M15.0833419,11.0317139 C16.2655923,12.0420017 18.1085285,12.5225633 20.6121505,12.4733988 C23.1157726,12.4242342 24.9587088,11.9436725 26.1409592,11.0317139"/>
      <path fill="#FFF" d="M17.6276946,38.9527418 L20.1151757,1.9729763 L21.3625393,1.9729763 L27.148172,38.5045393 C25.8012069,38.8184276 24.341049,39.0077212 22.7676981,39.0724198 C21.1943473,39.1371185 19.4810128,39.0972259 17.6276946,38.9527418 Z"/>
      <ellipse cx="20.468" cy="1.342" fill="#F0F3F5" stroke="#91A8B8" stroke-width=".575" rx="2.703" ry="1.342"/>
      <path stroke="#91A8B8" stroke-width=".575" d="M12.4089356 19.8237058C14.4887199 21.3049078 17.3029115 22.0245391 20.8515102 21.9825998 24.400109 21.9406605 26.9891336 21.2210292 28.6185842 19.8237058M9.84265455 28.2104388C12.1778978 29.929852 15.6137157 30.8253737 20.1501084 30.8970036 24.6865012 30.9686336 28.3813301 30.073112 31.2345953 28.2104388M14.9579271 11.1897406C16.3412901 12.0231792 18.2408063 12.4495897 20.6564757 12.468972 23.0721451 12.4883543 24.8647376 12.0619438 26.034253 11.1897406"/>
    </g>
  </g>
</svg>
